G04 EAGLE Gerber RS-274X export*
G75*
%MOMM*%
%FSLAX34Y34*%
%LPD*%
%INSoldermask Top*%
%IPPOS*%
%AMOC8*
5,1,8,0,0,1.08239X$1,22.5*%
G01*
%ADD10R,2.003200X1.803200*%
%ADD11C,1.727200*%
%ADD12R,2.006200X1.803200*%
%ADD13R,1.803200X2.006200*%
%ADD14R,1.117600X1.981200*%


D10*
X251460Y262920D03*
X251460Y234920D03*
D11*
X106680Y401320D02*
X106680Y416560D01*
X132080Y416560D02*
X132080Y401320D01*
X157480Y401320D02*
X157480Y416560D01*
X182880Y416560D02*
X182880Y401320D01*
X208280Y401320D02*
X208280Y416560D01*
X233680Y416560D02*
X233680Y401320D01*
D12*
X132080Y95500D03*
X132080Y67060D03*
X182880Y95500D03*
X182880Y67060D03*
X208280Y95500D03*
X208280Y67060D03*
X233680Y95500D03*
X233680Y67060D03*
X279400Y95500D03*
X279400Y67060D03*
X304800Y95500D03*
X304800Y67060D03*
X330200Y95500D03*
X330200Y67060D03*
X81280Y95500D03*
X81280Y67060D03*
X55880Y95500D03*
X55880Y67060D03*
X30480Y95500D03*
X30480Y67060D03*
X157480Y95500D03*
X157480Y67060D03*
X106680Y95500D03*
X106680Y67060D03*
D13*
X133100Y363220D03*
X161540Y363220D03*
X206760Y363220D03*
X235200Y363220D03*
X100580Y363220D03*
X72140Y363220D03*
D11*
X330200Y38100D02*
X330200Y22860D01*
X304800Y22860D02*
X304800Y38100D01*
X279400Y38100D02*
X279400Y22860D01*
X233680Y22860D02*
X233680Y38100D01*
X208280Y38100D02*
X208280Y22860D01*
X182880Y22860D02*
X182880Y38100D01*
X157480Y38100D02*
X157480Y22860D01*
X132080Y22860D02*
X132080Y38100D01*
X106680Y38100D02*
X106680Y22860D01*
X81280Y22860D02*
X81280Y38100D01*
X55880Y38100D02*
X55880Y22860D01*
X30480Y22860D02*
X30480Y38100D01*
D14*
X106680Y198120D03*
X119380Y198120D03*
X132080Y198120D03*
X144780Y198120D03*
X157480Y198120D03*
X170180Y198120D03*
X182880Y198120D03*
X195580Y198120D03*
X208280Y198120D03*
X220980Y198120D03*
X106680Y298120D03*
X119380Y298120D03*
X132080Y298120D03*
X144780Y298120D03*
X157480Y298120D03*
X170180Y298120D03*
X182880Y298120D03*
X195580Y298120D03*
X208280Y298120D03*
X220980Y298120D03*
M02*
