G04 EAGLE Gerber RS-274X export*
G75*
%MOMM*%
%FSLAX34Y34*%
%LPD*%
%INBottom Copper*%
%IPPOS*%
%AMOC8*
5,1,8,0,0,1.08239X$1,22.5*%
G01*
%ADD10R,1.508000X1.508000*%
%ADD11C,1.524000*%
%ADD12C,0.200000*%
%ADD13C,0.756400*%


D10*
X70000Y595000D03*
X70000Y455000D03*
X70000Y305000D03*
X70000Y165000D03*
X70000Y690000D03*
X30000Y110000D03*
D11*
X33200Y806380D02*
X33200Y821620D01*
X58600Y821620D02*
X58600Y806380D01*
X84000Y806380D02*
X84000Y821620D01*
X109400Y821620D02*
X109400Y806380D01*
X134800Y806380D02*
X134800Y821620D01*
D12*
X58600Y814000D02*
X58600Y835000D01*
X168840Y835000D02*
X168840Y110000D01*
X30000Y110000D01*
X58600Y835000D02*
X168840Y835000D01*
X84000Y814000D02*
X84000Y766000D01*
X145000Y766000D01*
X145000Y595000D02*
X70000Y595000D01*
X70000Y165000D02*
X145000Y165000D01*
X145000Y766000D01*
X109400Y774000D02*
X109400Y814000D01*
X109400Y774000D02*
X153000Y774000D01*
D13*
X153000Y305000D03*
D12*
X153000Y774000D01*
D13*
X161000Y455058D03*
D12*
X161000Y782000D01*
X134800Y782000D02*
X134800Y814000D01*
X134800Y782000D02*
X161000Y782000D01*
M02*
