G04 EAGLE Gerber RS-274X export*
G75*
%MOMM*%
%FSLAX34Y34*%
%LPD*%
%INSilkscreen Bottom*%
%IPPOS*%
%AMOC8*
5,1,8,0,0,1.08239X$1,22.5*%
G01*

G36*
X-9889Y488487D02*
X-9889Y488487D01*
X-9829Y488486D01*
X-9717Y488512D01*
X-9603Y488529D01*
X-9547Y488552D01*
X-9489Y488565D01*
X-9303Y488649D01*
X-9279Y488658D01*
X-9274Y488662D01*
X-9266Y488665D01*
X190734Y598665D01*
X190871Y598762D01*
X191007Y598857D01*
X191012Y598863D01*
X191018Y598867D01*
X191129Y598993D01*
X191240Y599116D01*
X191244Y599122D01*
X191249Y599128D01*
X191328Y599275D01*
X191409Y599421D01*
X191411Y599428D01*
X191415Y599435D01*
X191458Y599596D01*
X191504Y599756D01*
X191504Y599765D01*
X191506Y599771D01*
X191507Y599797D01*
X191523Y600000D01*
X191523Y620000D01*
X191516Y620060D01*
X191519Y620120D01*
X191497Y620232D01*
X191483Y620346D01*
X191463Y620403D01*
X191452Y620462D01*
X191405Y620566D01*
X191366Y620674D01*
X191333Y620725D01*
X191309Y620779D01*
X191239Y620871D01*
X191177Y620967D01*
X191134Y621009D01*
X191097Y621056D01*
X191009Y621129D01*
X190926Y621209D01*
X190875Y621240D01*
X190829Y621278D01*
X190726Y621329D01*
X190627Y621388D01*
X190570Y621406D01*
X190516Y621433D01*
X190404Y621459D01*
X190295Y621494D01*
X190235Y621499D01*
X190177Y621513D01*
X190062Y621513D01*
X189948Y621522D01*
X189889Y621513D01*
X189829Y621514D01*
X189717Y621488D01*
X189603Y621471D01*
X189547Y621448D01*
X189489Y621435D01*
X189303Y621352D01*
X189279Y621342D01*
X189274Y621338D01*
X189266Y621335D01*
X-10734Y511335D01*
X-10871Y511238D01*
X-11007Y511143D01*
X-11012Y511137D01*
X-11018Y511133D01*
X-11129Y511007D01*
X-11240Y510884D01*
X-11244Y510878D01*
X-11249Y510872D01*
X-11328Y510725D01*
X-11409Y510579D01*
X-11411Y510572D01*
X-11415Y510565D01*
X-11458Y510404D01*
X-11504Y510244D01*
X-11504Y510235D01*
X-11506Y510229D01*
X-11507Y510203D01*
X-11523Y510000D01*
X-11523Y490000D01*
X-11516Y489940D01*
X-11519Y489881D01*
X-11497Y489768D01*
X-11483Y489654D01*
X-11463Y489597D01*
X-11452Y489538D01*
X-11405Y489434D01*
X-11366Y489326D01*
X-11333Y489275D01*
X-11309Y489221D01*
X-11239Y489129D01*
X-11177Y489033D01*
X-11134Y488991D01*
X-11097Y488944D01*
X-11009Y488871D01*
X-10926Y488791D01*
X-10875Y488760D01*
X-10829Y488722D01*
X-10726Y488671D01*
X-10627Y488612D01*
X-10570Y488594D01*
X-10516Y488567D01*
X-10404Y488541D01*
X-10295Y488506D01*
X-10235Y488501D01*
X-10177Y488487D01*
X-10062Y488487D01*
X-9948Y488478D01*
X-9889Y488487D01*
G37*
G36*
X-9889Y788487D02*
X-9889Y788487D01*
X-9829Y788486D01*
X-9717Y788512D01*
X-9603Y788529D01*
X-9547Y788552D01*
X-9489Y788565D01*
X-9303Y788649D01*
X-9279Y788658D01*
X-9274Y788662D01*
X-9266Y788665D01*
X190734Y898665D01*
X190871Y898762D01*
X191007Y898857D01*
X191012Y898863D01*
X191018Y898867D01*
X191129Y898993D01*
X191240Y899116D01*
X191244Y899122D01*
X191249Y899128D01*
X191328Y899275D01*
X191409Y899421D01*
X191411Y899428D01*
X191415Y899435D01*
X191458Y899596D01*
X191504Y899756D01*
X191504Y899765D01*
X191506Y899771D01*
X191507Y899797D01*
X191523Y900000D01*
X191523Y920000D01*
X191516Y920060D01*
X191519Y920120D01*
X191497Y920232D01*
X191483Y920346D01*
X191463Y920402D01*
X191452Y920462D01*
X191405Y920566D01*
X191366Y920674D01*
X191333Y920725D01*
X191309Y920779D01*
X191239Y920871D01*
X191177Y920967D01*
X191134Y921009D01*
X191097Y921056D01*
X191009Y921129D01*
X190926Y921209D01*
X190875Y921240D01*
X190829Y921278D01*
X190726Y921329D01*
X190627Y921388D01*
X190570Y921406D01*
X190516Y921433D01*
X190404Y921459D01*
X190295Y921494D01*
X190235Y921499D01*
X190177Y921513D01*
X190062Y921513D01*
X189948Y921522D01*
X189889Y921513D01*
X189829Y921514D01*
X189717Y921488D01*
X189603Y921471D01*
X189547Y921448D01*
X189489Y921435D01*
X189303Y921352D01*
X189279Y921342D01*
X189274Y921338D01*
X189266Y921335D01*
X-10734Y811335D01*
X-10871Y811238D01*
X-11007Y811143D01*
X-11012Y811137D01*
X-11018Y811133D01*
X-11129Y811007D01*
X-11240Y810884D01*
X-11244Y810878D01*
X-11249Y810872D01*
X-11328Y810725D01*
X-11409Y810579D01*
X-11411Y810572D01*
X-11415Y810565D01*
X-11458Y810404D01*
X-11504Y810244D01*
X-11504Y810235D01*
X-11506Y810229D01*
X-11507Y810203D01*
X-11523Y810000D01*
X-11523Y790000D01*
X-11516Y789940D01*
X-11519Y789881D01*
X-11497Y789768D01*
X-11483Y789654D01*
X-11463Y789597D01*
X-11452Y789538D01*
X-11405Y789434D01*
X-11366Y789326D01*
X-11333Y789275D01*
X-11309Y789221D01*
X-11239Y789129D01*
X-11177Y789033D01*
X-11134Y788991D01*
X-11097Y788944D01*
X-11009Y788871D01*
X-10926Y788791D01*
X-10875Y788760D01*
X-10829Y788722D01*
X-10726Y788671D01*
X-10627Y788612D01*
X-10570Y788594D01*
X-10516Y788567D01*
X-10404Y788541D01*
X-10295Y788506D01*
X-10235Y788501D01*
X-10177Y788487D01*
X-10062Y788487D01*
X-9948Y788478D01*
X-9889Y788487D01*
G37*
G36*
X-9889Y738487D02*
X-9889Y738487D01*
X-9829Y738486D01*
X-9717Y738512D01*
X-9603Y738529D01*
X-9547Y738552D01*
X-9489Y738565D01*
X-9303Y738649D01*
X-9279Y738658D01*
X-9274Y738662D01*
X-9266Y738665D01*
X190734Y848665D01*
X190871Y848762D01*
X191007Y848857D01*
X191012Y848863D01*
X191018Y848867D01*
X191129Y848993D01*
X191240Y849116D01*
X191244Y849122D01*
X191249Y849128D01*
X191328Y849275D01*
X191409Y849421D01*
X191411Y849428D01*
X191415Y849435D01*
X191458Y849596D01*
X191504Y849756D01*
X191504Y849765D01*
X191506Y849771D01*
X191507Y849797D01*
X191523Y850000D01*
X191523Y870000D01*
X191516Y870060D01*
X191519Y870120D01*
X191497Y870232D01*
X191483Y870346D01*
X191463Y870402D01*
X191452Y870462D01*
X191405Y870566D01*
X191366Y870674D01*
X191333Y870725D01*
X191309Y870779D01*
X191239Y870871D01*
X191177Y870967D01*
X191134Y871009D01*
X191097Y871056D01*
X191009Y871129D01*
X190926Y871209D01*
X190875Y871240D01*
X190829Y871278D01*
X190726Y871329D01*
X190627Y871388D01*
X190570Y871406D01*
X190516Y871433D01*
X190404Y871459D01*
X190295Y871494D01*
X190235Y871499D01*
X190177Y871513D01*
X190062Y871513D01*
X189948Y871522D01*
X189889Y871513D01*
X189829Y871514D01*
X189717Y871488D01*
X189603Y871471D01*
X189547Y871448D01*
X189489Y871435D01*
X189303Y871352D01*
X189279Y871342D01*
X189274Y871338D01*
X189266Y871335D01*
X-10734Y761335D01*
X-10871Y761238D01*
X-11007Y761143D01*
X-11012Y761137D01*
X-11018Y761133D01*
X-11129Y761007D01*
X-11240Y760884D01*
X-11244Y760878D01*
X-11249Y760872D01*
X-11328Y760725D01*
X-11409Y760579D01*
X-11411Y760572D01*
X-11415Y760565D01*
X-11458Y760404D01*
X-11504Y760244D01*
X-11504Y760235D01*
X-11506Y760229D01*
X-11507Y760203D01*
X-11523Y760000D01*
X-11523Y740000D01*
X-11516Y739940D01*
X-11519Y739881D01*
X-11497Y739768D01*
X-11483Y739654D01*
X-11463Y739597D01*
X-11452Y739538D01*
X-11405Y739434D01*
X-11366Y739326D01*
X-11333Y739275D01*
X-11309Y739221D01*
X-11239Y739129D01*
X-11177Y739033D01*
X-11134Y738991D01*
X-11097Y738944D01*
X-11009Y738871D01*
X-10926Y738791D01*
X-10875Y738760D01*
X-10829Y738722D01*
X-10726Y738671D01*
X-10627Y738612D01*
X-10570Y738594D01*
X-10516Y738567D01*
X-10404Y738541D01*
X-10295Y738506D01*
X-10235Y738501D01*
X-10177Y738487D01*
X-10062Y738487D01*
X-9948Y738478D01*
X-9889Y738487D01*
G37*
G36*
X-9889Y688487D02*
X-9889Y688487D01*
X-9829Y688486D01*
X-9717Y688512D01*
X-9603Y688529D01*
X-9547Y688552D01*
X-9489Y688565D01*
X-9303Y688649D01*
X-9279Y688658D01*
X-9274Y688662D01*
X-9266Y688665D01*
X190734Y798665D01*
X190871Y798762D01*
X191007Y798857D01*
X191012Y798863D01*
X191018Y798867D01*
X191129Y798993D01*
X191240Y799116D01*
X191244Y799122D01*
X191249Y799128D01*
X191328Y799275D01*
X191409Y799421D01*
X191411Y799428D01*
X191415Y799435D01*
X191458Y799596D01*
X191504Y799756D01*
X191504Y799765D01*
X191506Y799771D01*
X191507Y799797D01*
X191523Y800000D01*
X191523Y820000D01*
X191516Y820060D01*
X191519Y820120D01*
X191497Y820232D01*
X191483Y820346D01*
X191463Y820402D01*
X191452Y820462D01*
X191405Y820566D01*
X191366Y820674D01*
X191333Y820725D01*
X191309Y820779D01*
X191239Y820871D01*
X191177Y820967D01*
X191134Y821009D01*
X191097Y821056D01*
X191009Y821129D01*
X190926Y821209D01*
X190875Y821240D01*
X190829Y821278D01*
X190726Y821329D01*
X190627Y821388D01*
X190570Y821406D01*
X190516Y821433D01*
X190404Y821459D01*
X190295Y821494D01*
X190235Y821499D01*
X190177Y821513D01*
X190062Y821513D01*
X189948Y821522D01*
X189889Y821513D01*
X189829Y821514D01*
X189717Y821488D01*
X189603Y821471D01*
X189547Y821448D01*
X189489Y821435D01*
X189303Y821352D01*
X189279Y821342D01*
X189274Y821338D01*
X189266Y821335D01*
X-10734Y711335D01*
X-10871Y711238D01*
X-11007Y711143D01*
X-11012Y711137D01*
X-11018Y711133D01*
X-11129Y711007D01*
X-11240Y710884D01*
X-11244Y710878D01*
X-11249Y710872D01*
X-11328Y710725D01*
X-11409Y710579D01*
X-11411Y710572D01*
X-11415Y710565D01*
X-11458Y710404D01*
X-11504Y710244D01*
X-11504Y710235D01*
X-11506Y710229D01*
X-11507Y710203D01*
X-11523Y710000D01*
X-11523Y690000D01*
X-11516Y689940D01*
X-11519Y689881D01*
X-11497Y689768D01*
X-11483Y689654D01*
X-11463Y689597D01*
X-11452Y689538D01*
X-11405Y689434D01*
X-11366Y689326D01*
X-11333Y689275D01*
X-11309Y689221D01*
X-11239Y689129D01*
X-11177Y689033D01*
X-11134Y688991D01*
X-11097Y688944D01*
X-11009Y688871D01*
X-10926Y688791D01*
X-10875Y688760D01*
X-10829Y688722D01*
X-10726Y688671D01*
X-10627Y688612D01*
X-10570Y688594D01*
X-10516Y688567D01*
X-10404Y688541D01*
X-10295Y688506D01*
X-10235Y688501D01*
X-10177Y688487D01*
X-10062Y688487D01*
X-9948Y688478D01*
X-9889Y688487D01*
G37*
G36*
X-9889Y638487D02*
X-9889Y638487D01*
X-9829Y638486D01*
X-9717Y638512D01*
X-9603Y638529D01*
X-9547Y638552D01*
X-9489Y638565D01*
X-9303Y638649D01*
X-9279Y638658D01*
X-9274Y638662D01*
X-9266Y638665D01*
X190734Y748665D01*
X190871Y748762D01*
X191007Y748857D01*
X191012Y748863D01*
X191018Y748867D01*
X191129Y748993D01*
X191240Y749116D01*
X191244Y749122D01*
X191249Y749128D01*
X191328Y749275D01*
X191409Y749421D01*
X191411Y749428D01*
X191415Y749435D01*
X191458Y749596D01*
X191504Y749756D01*
X191504Y749765D01*
X191506Y749771D01*
X191507Y749797D01*
X191523Y750000D01*
X191523Y770000D01*
X191516Y770060D01*
X191519Y770120D01*
X191497Y770232D01*
X191483Y770346D01*
X191463Y770402D01*
X191452Y770462D01*
X191405Y770566D01*
X191366Y770674D01*
X191333Y770725D01*
X191309Y770779D01*
X191239Y770871D01*
X191177Y770967D01*
X191134Y771009D01*
X191097Y771056D01*
X191009Y771129D01*
X190926Y771209D01*
X190875Y771240D01*
X190829Y771278D01*
X190726Y771329D01*
X190627Y771388D01*
X190570Y771406D01*
X190516Y771433D01*
X190404Y771459D01*
X190295Y771494D01*
X190235Y771499D01*
X190177Y771513D01*
X190062Y771513D01*
X189948Y771522D01*
X189889Y771513D01*
X189829Y771514D01*
X189717Y771488D01*
X189603Y771471D01*
X189547Y771448D01*
X189489Y771435D01*
X189303Y771352D01*
X189279Y771342D01*
X189274Y771338D01*
X189266Y771335D01*
X-10734Y661335D01*
X-10871Y661238D01*
X-11007Y661143D01*
X-11012Y661137D01*
X-11018Y661133D01*
X-11129Y661007D01*
X-11240Y660884D01*
X-11244Y660878D01*
X-11249Y660872D01*
X-11328Y660725D01*
X-11409Y660579D01*
X-11411Y660572D01*
X-11415Y660565D01*
X-11458Y660404D01*
X-11504Y660244D01*
X-11504Y660235D01*
X-11506Y660229D01*
X-11507Y660203D01*
X-11523Y660000D01*
X-11523Y640000D01*
X-11516Y639940D01*
X-11519Y639881D01*
X-11497Y639768D01*
X-11483Y639654D01*
X-11463Y639597D01*
X-11452Y639538D01*
X-11405Y639434D01*
X-11366Y639326D01*
X-11333Y639275D01*
X-11309Y639221D01*
X-11239Y639129D01*
X-11177Y639033D01*
X-11134Y638991D01*
X-11097Y638944D01*
X-11009Y638871D01*
X-10926Y638791D01*
X-10875Y638760D01*
X-10829Y638722D01*
X-10726Y638671D01*
X-10627Y638612D01*
X-10570Y638594D01*
X-10516Y638567D01*
X-10404Y638541D01*
X-10295Y638506D01*
X-10235Y638501D01*
X-10177Y638487D01*
X-10062Y638487D01*
X-9948Y638478D01*
X-9889Y638487D01*
G37*
G36*
X-9889Y588487D02*
X-9889Y588487D01*
X-9829Y588486D01*
X-9717Y588512D01*
X-9603Y588529D01*
X-9547Y588552D01*
X-9489Y588565D01*
X-9303Y588649D01*
X-9279Y588658D01*
X-9274Y588662D01*
X-9266Y588665D01*
X190734Y698665D01*
X190871Y698762D01*
X191007Y698857D01*
X191012Y698863D01*
X191018Y698867D01*
X191129Y698993D01*
X191240Y699116D01*
X191244Y699122D01*
X191249Y699128D01*
X191328Y699275D01*
X191409Y699421D01*
X191411Y699428D01*
X191415Y699435D01*
X191458Y699596D01*
X191504Y699756D01*
X191504Y699765D01*
X191506Y699771D01*
X191507Y699797D01*
X191523Y700000D01*
X191523Y720000D01*
X191516Y720060D01*
X191519Y720120D01*
X191497Y720232D01*
X191483Y720346D01*
X191463Y720402D01*
X191452Y720462D01*
X191405Y720566D01*
X191366Y720674D01*
X191333Y720725D01*
X191309Y720779D01*
X191239Y720871D01*
X191177Y720967D01*
X191134Y721009D01*
X191097Y721056D01*
X191009Y721129D01*
X190926Y721209D01*
X190875Y721240D01*
X190829Y721278D01*
X190726Y721329D01*
X190627Y721388D01*
X190570Y721406D01*
X190516Y721433D01*
X190404Y721459D01*
X190295Y721494D01*
X190235Y721499D01*
X190177Y721513D01*
X190062Y721513D01*
X189948Y721522D01*
X189889Y721513D01*
X189829Y721514D01*
X189717Y721488D01*
X189603Y721471D01*
X189547Y721448D01*
X189489Y721435D01*
X189303Y721352D01*
X189279Y721342D01*
X189274Y721338D01*
X189266Y721335D01*
X-10734Y611335D01*
X-10871Y611238D01*
X-11007Y611143D01*
X-11012Y611137D01*
X-11018Y611133D01*
X-11129Y611007D01*
X-11240Y610884D01*
X-11244Y610878D01*
X-11249Y610872D01*
X-11328Y610725D01*
X-11409Y610579D01*
X-11411Y610572D01*
X-11415Y610565D01*
X-11458Y610404D01*
X-11504Y610244D01*
X-11504Y610235D01*
X-11506Y610229D01*
X-11507Y610203D01*
X-11523Y610000D01*
X-11523Y590000D01*
X-11516Y589940D01*
X-11519Y589881D01*
X-11497Y589768D01*
X-11483Y589654D01*
X-11463Y589597D01*
X-11452Y589538D01*
X-11405Y589434D01*
X-11366Y589326D01*
X-11333Y589275D01*
X-11309Y589221D01*
X-11239Y589129D01*
X-11177Y589033D01*
X-11134Y588991D01*
X-11097Y588944D01*
X-11009Y588871D01*
X-10926Y588791D01*
X-10875Y588760D01*
X-10829Y588722D01*
X-10726Y588671D01*
X-10627Y588612D01*
X-10570Y588594D01*
X-10516Y588567D01*
X-10404Y588541D01*
X-10295Y588506D01*
X-10235Y588501D01*
X-10177Y588487D01*
X-10062Y588487D01*
X-9948Y588478D01*
X-9889Y588487D01*
G37*
G36*
X-9889Y538487D02*
X-9889Y538487D01*
X-9829Y538486D01*
X-9717Y538512D01*
X-9603Y538529D01*
X-9547Y538552D01*
X-9489Y538565D01*
X-9303Y538649D01*
X-9279Y538658D01*
X-9274Y538662D01*
X-9266Y538665D01*
X190734Y648665D01*
X190871Y648762D01*
X191007Y648857D01*
X191012Y648863D01*
X191018Y648867D01*
X191129Y648993D01*
X191240Y649116D01*
X191244Y649122D01*
X191249Y649128D01*
X191328Y649275D01*
X191409Y649421D01*
X191411Y649428D01*
X191415Y649435D01*
X191458Y649596D01*
X191504Y649756D01*
X191504Y649765D01*
X191506Y649771D01*
X191507Y649797D01*
X191523Y650000D01*
X191523Y670000D01*
X191516Y670060D01*
X191519Y670120D01*
X191497Y670232D01*
X191483Y670346D01*
X191463Y670402D01*
X191452Y670462D01*
X191405Y670566D01*
X191366Y670674D01*
X191333Y670725D01*
X191309Y670779D01*
X191239Y670871D01*
X191177Y670967D01*
X191134Y671009D01*
X191097Y671056D01*
X191009Y671129D01*
X190926Y671209D01*
X190875Y671240D01*
X190829Y671278D01*
X190726Y671329D01*
X190627Y671388D01*
X190570Y671406D01*
X190516Y671433D01*
X190404Y671459D01*
X190295Y671494D01*
X190235Y671499D01*
X190177Y671513D01*
X190062Y671513D01*
X189948Y671522D01*
X189889Y671513D01*
X189829Y671514D01*
X189717Y671488D01*
X189603Y671471D01*
X189547Y671448D01*
X189489Y671435D01*
X189303Y671352D01*
X189279Y671342D01*
X189274Y671338D01*
X189266Y671335D01*
X-10734Y561335D01*
X-10871Y561238D01*
X-11007Y561143D01*
X-11012Y561137D01*
X-11018Y561133D01*
X-11129Y561007D01*
X-11240Y560884D01*
X-11244Y560878D01*
X-11249Y560872D01*
X-11328Y560725D01*
X-11409Y560579D01*
X-11411Y560572D01*
X-11415Y560565D01*
X-11458Y560404D01*
X-11504Y560244D01*
X-11504Y560235D01*
X-11506Y560229D01*
X-11507Y560203D01*
X-11523Y560000D01*
X-11523Y540000D01*
X-11516Y539940D01*
X-11519Y539881D01*
X-11497Y539768D01*
X-11483Y539654D01*
X-11463Y539597D01*
X-11452Y539538D01*
X-11405Y539434D01*
X-11366Y539326D01*
X-11333Y539275D01*
X-11309Y539221D01*
X-11239Y539129D01*
X-11177Y539033D01*
X-11134Y538991D01*
X-11097Y538944D01*
X-11009Y538871D01*
X-10926Y538791D01*
X-10875Y538760D01*
X-10829Y538722D01*
X-10726Y538671D01*
X-10627Y538612D01*
X-10570Y538594D01*
X-10516Y538567D01*
X-10404Y538541D01*
X-10295Y538506D01*
X-10235Y538501D01*
X-10177Y538487D01*
X-10062Y538487D01*
X-9948Y538478D01*
X-9889Y538487D01*
G37*
G36*
X-9889Y438487D02*
X-9889Y438487D01*
X-9829Y438486D01*
X-9717Y438512D01*
X-9603Y438529D01*
X-9547Y438552D01*
X-9489Y438565D01*
X-9303Y438649D01*
X-9279Y438658D01*
X-9274Y438662D01*
X-9266Y438665D01*
X190734Y548665D01*
X190871Y548762D01*
X191007Y548857D01*
X191012Y548863D01*
X191018Y548867D01*
X191129Y548993D01*
X191240Y549116D01*
X191244Y549122D01*
X191249Y549128D01*
X191328Y549275D01*
X191409Y549421D01*
X191411Y549428D01*
X191415Y549435D01*
X191458Y549596D01*
X191504Y549756D01*
X191504Y549765D01*
X191506Y549771D01*
X191507Y549797D01*
X191523Y550000D01*
X191523Y570000D01*
X191516Y570060D01*
X191519Y570120D01*
X191497Y570232D01*
X191483Y570346D01*
X191463Y570402D01*
X191452Y570462D01*
X191405Y570566D01*
X191366Y570674D01*
X191333Y570725D01*
X191309Y570779D01*
X191239Y570871D01*
X191177Y570967D01*
X191134Y571009D01*
X191097Y571056D01*
X191009Y571129D01*
X190926Y571209D01*
X190875Y571240D01*
X190829Y571278D01*
X190726Y571329D01*
X190627Y571388D01*
X190570Y571406D01*
X190516Y571433D01*
X190404Y571459D01*
X190295Y571494D01*
X190235Y571499D01*
X190177Y571513D01*
X190062Y571513D01*
X189948Y571522D01*
X189889Y571513D01*
X189829Y571514D01*
X189717Y571488D01*
X189603Y571471D01*
X189547Y571448D01*
X189489Y571435D01*
X189303Y571352D01*
X189279Y571342D01*
X189274Y571338D01*
X189266Y571335D01*
X-10734Y461335D01*
X-10871Y461238D01*
X-11007Y461143D01*
X-11012Y461137D01*
X-11018Y461133D01*
X-11129Y461007D01*
X-11240Y460884D01*
X-11244Y460878D01*
X-11249Y460872D01*
X-11328Y460725D01*
X-11409Y460579D01*
X-11411Y460572D01*
X-11415Y460565D01*
X-11458Y460404D01*
X-11504Y460244D01*
X-11504Y460235D01*
X-11506Y460229D01*
X-11507Y460203D01*
X-11523Y460000D01*
X-11523Y440000D01*
X-11516Y439940D01*
X-11519Y439881D01*
X-11497Y439768D01*
X-11483Y439654D01*
X-11463Y439597D01*
X-11452Y439538D01*
X-11405Y439434D01*
X-11366Y439326D01*
X-11333Y439275D01*
X-11309Y439221D01*
X-11239Y439129D01*
X-11177Y439033D01*
X-11134Y438991D01*
X-11097Y438944D01*
X-11009Y438871D01*
X-10926Y438791D01*
X-10875Y438760D01*
X-10829Y438722D01*
X-10726Y438671D01*
X-10627Y438612D01*
X-10570Y438594D01*
X-10516Y438567D01*
X-10404Y438541D01*
X-10295Y438506D01*
X-10235Y438501D01*
X-10177Y438487D01*
X-10062Y438487D01*
X-9948Y438478D01*
X-9889Y438487D01*
G37*
G36*
X-9889Y388487D02*
X-9889Y388487D01*
X-9829Y388486D01*
X-9717Y388512D01*
X-9603Y388529D01*
X-9547Y388552D01*
X-9489Y388565D01*
X-9303Y388649D01*
X-9279Y388658D01*
X-9274Y388662D01*
X-9266Y388665D01*
X190734Y498665D01*
X190871Y498762D01*
X191007Y498857D01*
X191012Y498863D01*
X191018Y498867D01*
X191129Y498993D01*
X191240Y499116D01*
X191244Y499122D01*
X191249Y499128D01*
X191328Y499275D01*
X191409Y499421D01*
X191411Y499428D01*
X191415Y499435D01*
X191458Y499596D01*
X191504Y499756D01*
X191504Y499765D01*
X191506Y499771D01*
X191507Y499797D01*
X191523Y500000D01*
X191523Y520000D01*
X191516Y520060D01*
X191519Y520120D01*
X191497Y520232D01*
X191483Y520346D01*
X191463Y520402D01*
X191452Y520462D01*
X191405Y520566D01*
X191366Y520674D01*
X191333Y520725D01*
X191309Y520779D01*
X191239Y520871D01*
X191177Y520967D01*
X191134Y521009D01*
X191097Y521056D01*
X191009Y521129D01*
X190926Y521209D01*
X190875Y521240D01*
X190829Y521278D01*
X190726Y521329D01*
X190627Y521388D01*
X190570Y521406D01*
X190516Y521433D01*
X190404Y521459D01*
X190295Y521494D01*
X190235Y521499D01*
X190177Y521513D01*
X190062Y521513D01*
X189948Y521522D01*
X189889Y521513D01*
X189829Y521514D01*
X189717Y521488D01*
X189603Y521471D01*
X189547Y521448D01*
X189489Y521435D01*
X189303Y521352D01*
X189279Y521342D01*
X189274Y521338D01*
X189266Y521335D01*
X-10734Y411335D01*
X-10871Y411238D01*
X-11007Y411143D01*
X-11012Y411137D01*
X-11018Y411133D01*
X-11129Y411007D01*
X-11240Y410884D01*
X-11244Y410878D01*
X-11249Y410872D01*
X-11328Y410725D01*
X-11409Y410579D01*
X-11411Y410572D01*
X-11415Y410565D01*
X-11458Y410404D01*
X-11504Y410244D01*
X-11504Y410235D01*
X-11506Y410229D01*
X-11507Y410203D01*
X-11523Y410000D01*
X-11523Y390000D01*
X-11516Y389940D01*
X-11519Y389881D01*
X-11497Y389768D01*
X-11483Y389654D01*
X-11463Y389597D01*
X-11452Y389538D01*
X-11405Y389434D01*
X-11366Y389326D01*
X-11333Y389275D01*
X-11309Y389221D01*
X-11239Y389129D01*
X-11177Y389033D01*
X-11134Y388991D01*
X-11097Y388944D01*
X-11009Y388871D01*
X-10926Y388791D01*
X-10875Y388760D01*
X-10829Y388722D01*
X-10726Y388671D01*
X-10627Y388612D01*
X-10570Y388594D01*
X-10516Y388567D01*
X-10404Y388541D01*
X-10295Y388506D01*
X-10235Y388501D01*
X-10177Y388487D01*
X-10062Y388487D01*
X-9948Y388478D01*
X-9889Y388487D01*
G37*
G36*
X-9889Y338487D02*
X-9889Y338487D01*
X-9829Y338486D01*
X-9717Y338512D01*
X-9603Y338529D01*
X-9547Y338552D01*
X-9489Y338565D01*
X-9303Y338649D01*
X-9279Y338658D01*
X-9274Y338662D01*
X-9266Y338665D01*
X190734Y448665D01*
X190871Y448762D01*
X191007Y448857D01*
X191012Y448863D01*
X191018Y448867D01*
X191129Y448993D01*
X191240Y449116D01*
X191244Y449122D01*
X191249Y449128D01*
X191328Y449275D01*
X191409Y449421D01*
X191411Y449428D01*
X191415Y449435D01*
X191458Y449596D01*
X191504Y449756D01*
X191504Y449765D01*
X191506Y449771D01*
X191507Y449797D01*
X191523Y450000D01*
X191523Y470000D01*
X191516Y470060D01*
X191519Y470120D01*
X191497Y470232D01*
X191483Y470346D01*
X191463Y470402D01*
X191452Y470462D01*
X191405Y470566D01*
X191366Y470674D01*
X191333Y470725D01*
X191309Y470779D01*
X191239Y470871D01*
X191177Y470967D01*
X191134Y471009D01*
X191097Y471056D01*
X191009Y471129D01*
X190926Y471209D01*
X190875Y471240D01*
X190829Y471278D01*
X190726Y471329D01*
X190627Y471388D01*
X190570Y471406D01*
X190516Y471433D01*
X190404Y471459D01*
X190295Y471494D01*
X190235Y471499D01*
X190177Y471513D01*
X190062Y471513D01*
X189948Y471522D01*
X189889Y471513D01*
X189829Y471514D01*
X189717Y471488D01*
X189603Y471471D01*
X189547Y471448D01*
X189489Y471435D01*
X189303Y471352D01*
X189279Y471342D01*
X189274Y471338D01*
X189266Y471335D01*
X-10734Y361335D01*
X-10871Y361238D01*
X-11007Y361143D01*
X-11012Y361137D01*
X-11018Y361133D01*
X-11129Y361007D01*
X-11240Y360884D01*
X-11244Y360878D01*
X-11249Y360872D01*
X-11328Y360725D01*
X-11409Y360579D01*
X-11411Y360572D01*
X-11415Y360565D01*
X-11458Y360404D01*
X-11504Y360244D01*
X-11504Y360235D01*
X-11506Y360229D01*
X-11507Y360203D01*
X-11523Y360000D01*
X-11523Y340000D01*
X-11516Y339940D01*
X-11519Y339881D01*
X-11497Y339768D01*
X-11483Y339654D01*
X-11463Y339597D01*
X-11452Y339538D01*
X-11405Y339434D01*
X-11366Y339326D01*
X-11333Y339275D01*
X-11309Y339221D01*
X-11239Y339129D01*
X-11177Y339033D01*
X-11134Y338991D01*
X-11097Y338944D01*
X-11009Y338871D01*
X-10926Y338791D01*
X-10875Y338760D01*
X-10829Y338722D01*
X-10726Y338671D01*
X-10627Y338612D01*
X-10570Y338594D01*
X-10516Y338567D01*
X-10404Y338541D01*
X-10295Y338506D01*
X-10235Y338501D01*
X-10177Y338487D01*
X-10062Y338487D01*
X-9948Y338478D01*
X-9889Y338487D01*
G37*
G36*
X-9889Y288487D02*
X-9889Y288487D01*
X-9829Y288486D01*
X-9717Y288512D01*
X-9603Y288529D01*
X-9547Y288552D01*
X-9489Y288565D01*
X-9303Y288649D01*
X-9279Y288658D01*
X-9274Y288662D01*
X-9266Y288665D01*
X190734Y398665D01*
X190871Y398762D01*
X191007Y398857D01*
X191012Y398863D01*
X191018Y398867D01*
X191129Y398993D01*
X191240Y399116D01*
X191244Y399122D01*
X191249Y399128D01*
X191328Y399275D01*
X191409Y399421D01*
X191411Y399428D01*
X191415Y399435D01*
X191458Y399596D01*
X191504Y399756D01*
X191504Y399765D01*
X191506Y399771D01*
X191507Y399797D01*
X191523Y400000D01*
X191523Y420000D01*
X191516Y420060D01*
X191519Y420120D01*
X191497Y420232D01*
X191483Y420346D01*
X191463Y420402D01*
X191452Y420462D01*
X191405Y420566D01*
X191366Y420674D01*
X191333Y420725D01*
X191309Y420779D01*
X191239Y420871D01*
X191177Y420967D01*
X191134Y421009D01*
X191097Y421056D01*
X191009Y421129D01*
X190926Y421209D01*
X190875Y421240D01*
X190829Y421278D01*
X190726Y421329D01*
X190627Y421388D01*
X190570Y421406D01*
X190516Y421433D01*
X190404Y421459D01*
X190295Y421494D01*
X190235Y421499D01*
X190177Y421513D01*
X190062Y421513D01*
X189948Y421522D01*
X189889Y421513D01*
X189829Y421514D01*
X189717Y421488D01*
X189603Y421471D01*
X189547Y421448D01*
X189489Y421435D01*
X189303Y421352D01*
X189279Y421342D01*
X189274Y421338D01*
X189266Y421335D01*
X-10734Y311335D01*
X-10871Y311238D01*
X-11007Y311143D01*
X-11012Y311137D01*
X-11018Y311133D01*
X-11129Y311007D01*
X-11240Y310884D01*
X-11244Y310878D01*
X-11249Y310872D01*
X-11328Y310725D01*
X-11409Y310579D01*
X-11411Y310572D01*
X-11415Y310565D01*
X-11458Y310404D01*
X-11504Y310244D01*
X-11504Y310235D01*
X-11506Y310229D01*
X-11507Y310203D01*
X-11523Y310000D01*
X-11523Y290000D01*
X-11516Y289940D01*
X-11519Y289881D01*
X-11497Y289768D01*
X-11483Y289654D01*
X-11463Y289597D01*
X-11452Y289538D01*
X-11405Y289434D01*
X-11366Y289326D01*
X-11333Y289275D01*
X-11309Y289221D01*
X-11239Y289129D01*
X-11177Y289033D01*
X-11134Y288991D01*
X-11097Y288944D01*
X-11009Y288871D01*
X-10926Y288791D01*
X-10875Y288760D01*
X-10829Y288722D01*
X-10726Y288671D01*
X-10627Y288612D01*
X-10570Y288594D01*
X-10516Y288567D01*
X-10404Y288541D01*
X-10295Y288506D01*
X-10235Y288501D01*
X-10177Y288487D01*
X-10062Y288487D01*
X-9948Y288478D01*
X-9889Y288487D01*
G37*
G36*
X-9889Y238487D02*
X-9889Y238487D01*
X-9829Y238486D01*
X-9717Y238512D01*
X-9603Y238529D01*
X-9547Y238552D01*
X-9489Y238565D01*
X-9303Y238649D01*
X-9279Y238658D01*
X-9274Y238662D01*
X-9266Y238665D01*
X190734Y348665D01*
X190871Y348762D01*
X191007Y348857D01*
X191012Y348863D01*
X191018Y348867D01*
X191129Y348993D01*
X191240Y349116D01*
X191244Y349122D01*
X191249Y349128D01*
X191328Y349275D01*
X191409Y349421D01*
X191411Y349428D01*
X191415Y349435D01*
X191458Y349596D01*
X191504Y349756D01*
X191504Y349765D01*
X191506Y349771D01*
X191507Y349797D01*
X191523Y350000D01*
X191523Y370000D01*
X191516Y370060D01*
X191519Y370120D01*
X191497Y370232D01*
X191483Y370346D01*
X191463Y370402D01*
X191452Y370462D01*
X191405Y370566D01*
X191366Y370674D01*
X191333Y370725D01*
X191309Y370779D01*
X191239Y370871D01*
X191177Y370967D01*
X191134Y371009D01*
X191097Y371056D01*
X191009Y371129D01*
X190926Y371209D01*
X190875Y371240D01*
X190829Y371278D01*
X190726Y371329D01*
X190627Y371388D01*
X190570Y371406D01*
X190516Y371433D01*
X190404Y371459D01*
X190295Y371494D01*
X190235Y371499D01*
X190177Y371513D01*
X190062Y371513D01*
X189948Y371522D01*
X189889Y371513D01*
X189829Y371514D01*
X189717Y371488D01*
X189603Y371471D01*
X189547Y371448D01*
X189489Y371435D01*
X189303Y371352D01*
X189279Y371342D01*
X189274Y371338D01*
X189266Y371335D01*
X-10734Y261335D01*
X-10871Y261238D01*
X-11007Y261143D01*
X-11012Y261137D01*
X-11018Y261133D01*
X-11129Y261007D01*
X-11240Y260884D01*
X-11244Y260878D01*
X-11249Y260872D01*
X-11328Y260725D01*
X-11409Y260579D01*
X-11411Y260572D01*
X-11415Y260565D01*
X-11458Y260404D01*
X-11504Y260244D01*
X-11504Y260235D01*
X-11506Y260229D01*
X-11507Y260203D01*
X-11523Y260000D01*
X-11523Y240000D01*
X-11516Y239940D01*
X-11519Y239881D01*
X-11497Y239768D01*
X-11483Y239654D01*
X-11463Y239597D01*
X-11452Y239538D01*
X-11405Y239434D01*
X-11366Y239326D01*
X-11333Y239275D01*
X-11309Y239221D01*
X-11239Y239129D01*
X-11177Y239033D01*
X-11134Y238991D01*
X-11097Y238944D01*
X-11009Y238871D01*
X-10926Y238791D01*
X-10875Y238760D01*
X-10829Y238722D01*
X-10726Y238671D01*
X-10627Y238612D01*
X-10570Y238594D01*
X-10516Y238567D01*
X-10404Y238541D01*
X-10295Y238506D01*
X-10235Y238501D01*
X-10177Y238487D01*
X-10062Y238487D01*
X-9948Y238478D01*
X-9889Y238487D01*
G37*
G36*
X-9889Y188487D02*
X-9889Y188487D01*
X-9829Y188486D01*
X-9717Y188512D01*
X-9603Y188529D01*
X-9547Y188552D01*
X-9489Y188565D01*
X-9303Y188649D01*
X-9279Y188658D01*
X-9274Y188662D01*
X-9266Y188665D01*
X190734Y298665D01*
X190871Y298762D01*
X191007Y298857D01*
X191012Y298863D01*
X191018Y298867D01*
X191129Y298993D01*
X191240Y299116D01*
X191244Y299122D01*
X191249Y299128D01*
X191328Y299275D01*
X191409Y299421D01*
X191411Y299428D01*
X191415Y299435D01*
X191458Y299596D01*
X191504Y299756D01*
X191504Y299765D01*
X191506Y299771D01*
X191507Y299797D01*
X191523Y300000D01*
X191523Y320000D01*
X191516Y320060D01*
X191519Y320120D01*
X191497Y320232D01*
X191483Y320346D01*
X191463Y320402D01*
X191452Y320462D01*
X191405Y320566D01*
X191366Y320674D01*
X191333Y320725D01*
X191309Y320779D01*
X191239Y320871D01*
X191177Y320967D01*
X191134Y321009D01*
X191097Y321056D01*
X191009Y321129D01*
X190926Y321209D01*
X190875Y321240D01*
X190829Y321278D01*
X190726Y321329D01*
X190627Y321388D01*
X190570Y321406D01*
X190516Y321433D01*
X190404Y321459D01*
X190295Y321494D01*
X190235Y321499D01*
X190177Y321513D01*
X190062Y321513D01*
X189948Y321522D01*
X189889Y321513D01*
X189829Y321514D01*
X189717Y321488D01*
X189603Y321471D01*
X189547Y321448D01*
X189489Y321435D01*
X189303Y321352D01*
X189279Y321342D01*
X189274Y321338D01*
X189266Y321335D01*
X-10734Y211335D01*
X-10871Y211238D01*
X-11007Y211143D01*
X-11012Y211137D01*
X-11018Y211133D01*
X-11129Y211007D01*
X-11240Y210884D01*
X-11244Y210878D01*
X-11249Y210872D01*
X-11328Y210725D01*
X-11409Y210579D01*
X-11411Y210572D01*
X-11415Y210565D01*
X-11458Y210404D01*
X-11504Y210244D01*
X-11504Y210235D01*
X-11506Y210229D01*
X-11507Y210203D01*
X-11523Y210000D01*
X-11523Y190000D01*
X-11516Y189940D01*
X-11519Y189881D01*
X-11497Y189768D01*
X-11483Y189654D01*
X-11463Y189597D01*
X-11452Y189538D01*
X-11405Y189434D01*
X-11366Y189326D01*
X-11333Y189275D01*
X-11309Y189221D01*
X-11239Y189129D01*
X-11177Y189033D01*
X-11134Y188991D01*
X-11097Y188944D01*
X-11009Y188871D01*
X-10926Y188791D01*
X-10875Y188760D01*
X-10829Y188722D01*
X-10726Y188671D01*
X-10627Y188612D01*
X-10570Y188594D01*
X-10516Y188567D01*
X-10404Y188541D01*
X-10295Y188506D01*
X-10235Y188501D01*
X-10177Y188487D01*
X-10062Y188487D01*
X-9948Y188478D01*
X-9889Y188487D01*
G37*
G36*
X-9889Y138487D02*
X-9889Y138487D01*
X-9829Y138486D01*
X-9717Y138512D01*
X-9603Y138529D01*
X-9547Y138552D01*
X-9489Y138565D01*
X-9303Y138649D01*
X-9279Y138658D01*
X-9274Y138662D01*
X-9266Y138665D01*
X190734Y248665D01*
X190871Y248762D01*
X191007Y248857D01*
X191012Y248863D01*
X191018Y248867D01*
X191129Y248993D01*
X191240Y249116D01*
X191244Y249122D01*
X191249Y249128D01*
X191328Y249275D01*
X191409Y249421D01*
X191411Y249428D01*
X191415Y249435D01*
X191458Y249596D01*
X191504Y249756D01*
X191504Y249765D01*
X191506Y249771D01*
X191507Y249797D01*
X191523Y250000D01*
X191523Y270000D01*
X191516Y270060D01*
X191519Y270120D01*
X191497Y270232D01*
X191483Y270346D01*
X191463Y270402D01*
X191452Y270462D01*
X191405Y270566D01*
X191366Y270674D01*
X191333Y270725D01*
X191309Y270779D01*
X191239Y270871D01*
X191177Y270967D01*
X191134Y271009D01*
X191097Y271056D01*
X191009Y271129D01*
X190926Y271209D01*
X190875Y271240D01*
X190829Y271278D01*
X190726Y271329D01*
X190627Y271388D01*
X190570Y271406D01*
X190516Y271433D01*
X190404Y271459D01*
X190295Y271494D01*
X190235Y271499D01*
X190177Y271513D01*
X190062Y271513D01*
X189948Y271522D01*
X189889Y271513D01*
X189829Y271514D01*
X189717Y271488D01*
X189603Y271471D01*
X189547Y271448D01*
X189489Y271435D01*
X189303Y271352D01*
X189279Y271342D01*
X189274Y271338D01*
X189266Y271335D01*
X-10734Y161335D01*
X-10871Y161238D01*
X-11007Y161143D01*
X-11012Y161137D01*
X-11018Y161133D01*
X-11129Y161007D01*
X-11240Y160884D01*
X-11244Y160878D01*
X-11249Y160872D01*
X-11328Y160725D01*
X-11409Y160579D01*
X-11411Y160572D01*
X-11415Y160565D01*
X-11458Y160404D01*
X-11504Y160244D01*
X-11504Y160235D01*
X-11506Y160229D01*
X-11507Y160203D01*
X-11523Y160000D01*
X-11523Y140000D01*
X-11516Y139940D01*
X-11519Y139881D01*
X-11497Y139768D01*
X-11483Y139654D01*
X-11463Y139597D01*
X-11452Y139538D01*
X-11405Y139434D01*
X-11366Y139326D01*
X-11333Y139275D01*
X-11309Y139221D01*
X-11239Y139129D01*
X-11177Y139033D01*
X-11134Y138991D01*
X-11097Y138944D01*
X-11009Y138871D01*
X-10926Y138791D01*
X-10875Y138760D01*
X-10829Y138722D01*
X-10726Y138671D01*
X-10627Y138612D01*
X-10570Y138594D01*
X-10516Y138567D01*
X-10404Y138541D01*
X-10295Y138506D01*
X-10235Y138501D01*
X-10177Y138487D01*
X-10062Y138487D01*
X-9948Y138478D01*
X-9889Y138487D01*
G37*
G36*
X-9889Y88487D02*
X-9889Y88487D01*
X-9829Y88486D01*
X-9717Y88512D01*
X-9603Y88529D01*
X-9547Y88552D01*
X-9489Y88565D01*
X-9303Y88649D01*
X-9279Y88658D01*
X-9274Y88662D01*
X-9266Y88665D01*
X190734Y198665D01*
X190871Y198762D01*
X191007Y198857D01*
X191012Y198863D01*
X191018Y198867D01*
X191129Y198993D01*
X191240Y199116D01*
X191244Y199122D01*
X191249Y199128D01*
X191328Y199275D01*
X191409Y199421D01*
X191411Y199428D01*
X191415Y199435D01*
X191458Y199596D01*
X191504Y199756D01*
X191504Y199765D01*
X191506Y199771D01*
X191507Y199797D01*
X191523Y200000D01*
X191523Y220000D01*
X191516Y220060D01*
X191519Y220120D01*
X191497Y220232D01*
X191483Y220346D01*
X191463Y220402D01*
X191452Y220462D01*
X191405Y220566D01*
X191366Y220674D01*
X191333Y220725D01*
X191309Y220779D01*
X191239Y220871D01*
X191177Y220967D01*
X191134Y221009D01*
X191097Y221056D01*
X191009Y221129D01*
X190926Y221209D01*
X190875Y221240D01*
X190829Y221278D01*
X190726Y221329D01*
X190627Y221388D01*
X190570Y221406D01*
X190516Y221433D01*
X190404Y221459D01*
X190295Y221494D01*
X190235Y221499D01*
X190177Y221513D01*
X190062Y221513D01*
X189948Y221522D01*
X189889Y221513D01*
X189829Y221514D01*
X189717Y221488D01*
X189603Y221471D01*
X189547Y221448D01*
X189489Y221435D01*
X189303Y221352D01*
X189279Y221342D01*
X189274Y221338D01*
X189266Y221335D01*
X-10734Y111335D01*
X-10871Y111238D01*
X-11007Y111143D01*
X-11012Y111137D01*
X-11018Y111133D01*
X-11129Y111007D01*
X-11240Y110884D01*
X-11244Y110878D01*
X-11249Y110872D01*
X-11328Y110725D01*
X-11409Y110579D01*
X-11411Y110572D01*
X-11415Y110565D01*
X-11458Y110404D01*
X-11504Y110244D01*
X-11504Y110235D01*
X-11506Y110229D01*
X-11507Y110203D01*
X-11523Y110000D01*
X-11523Y90000D01*
X-11516Y89940D01*
X-11519Y89881D01*
X-11497Y89768D01*
X-11483Y89654D01*
X-11463Y89597D01*
X-11452Y89538D01*
X-11405Y89434D01*
X-11366Y89326D01*
X-11333Y89275D01*
X-11309Y89221D01*
X-11239Y89129D01*
X-11177Y89033D01*
X-11134Y88991D01*
X-11097Y88944D01*
X-11009Y88871D01*
X-10926Y88791D01*
X-10875Y88760D01*
X-10829Y88722D01*
X-10726Y88671D01*
X-10627Y88612D01*
X-10570Y88594D01*
X-10516Y88567D01*
X-10404Y88541D01*
X-10295Y88506D01*
X-10235Y88501D01*
X-10177Y88487D01*
X-10062Y88487D01*
X-9948Y88478D01*
X-9889Y88487D01*
G37*
G36*
X-9889Y38487D02*
X-9889Y38487D01*
X-9829Y38486D01*
X-9717Y38512D01*
X-9603Y38529D01*
X-9547Y38552D01*
X-9489Y38565D01*
X-9303Y38649D01*
X-9279Y38658D01*
X-9274Y38662D01*
X-9266Y38665D01*
X190734Y148665D01*
X190871Y148762D01*
X191007Y148857D01*
X191012Y148863D01*
X191018Y148867D01*
X191129Y148993D01*
X191240Y149116D01*
X191244Y149122D01*
X191249Y149128D01*
X191328Y149275D01*
X191409Y149421D01*
X191411Y149428D01*
X191415Y149435D01*
X191458Y149596D01*
X191504Y149756D01*
X191504Y149765D01*
X191506Y149771D01*
X191507Y149797D01*
X191523Y150000D01*
X191523Y170000D01*
X191516Y170060D01*
X191519Y170120D01*
X191497Y170232D01*
X191483Y170346D01*
X191463Y170402D01*
X191452Y170462D01*
X191405Y170566D01*
X191366Y170674D01*
X191333Y170725D01*
X191309Y170779D01*
X191239Y170871D01*
X191177Y170967D01*
X191134Y171009D01*
X191097Y171056D01*
X191009Y171129D01*
X190926Y171209D01*
X190875Y171240D01*
X190829Y171278D01*
X190726Y171329D01*
X190627Y171388D01*
X190570Y171406D01*
X190516Y171433D01*
X190404Y171459D01*
X190295Y171494D01*
X190235Y171499D01*
X190177Y171513D01*
X190062Y171513D01*
X189948Y171522D01*
X189889Y171513D01*
X189829Y171514D01*
X189717Y171488D01*
X189603Y171471D01*
X189547Y171448D01*
X189489Y171435D01*
X189303Y171352D01*
X189279Y171342D01*
X189274Y171338D01*
X189266Y171335D01*
X-10734Y61335D01*
X-10871Y61238D01*
X-11007Y61143D01*
X-11012Y61137D01*
X-11018Y61133D01*
X-11129Y61007D01*
X-11240Y60884D01*
X-11244Y60878D01*
X-11249Y60872D01*
X-11328Y60725D01*
X-11409Y60579D01*
X-11411Y60572D01*
X-11415Y60565D01*
X-11458Y60404D01*
X-11504Y60244D01*
X-11504Y60235D01*
X-11506Y60229D01*
X-11507Y60203D01*
X-11523Y60000D01*
X-11523Y40000D01*
X-11516Y39940D01*
X-11519Y39881D01*
X-11497Y39768D01*
X-11483Y39654D01*
X-11463Y39597D01*
X-11452Y39538D01*
X-11405Y39434D01*
X-11366Y39326D01*
X-11333Y39275D01*
X-11309Y39221D01*
X-11239Y39129D01*
X-11177Y39033D01*
X-11134Y38991D01*
X-11097Y38944D01*
X-11009Y38871D01*
X-10926Y38791D01*
X-10875Y38760D01*
X-10829Y38722D01*
X-10726Y38671D01*
X-10627Y38612D01*
X-10570Y38594D01*
X-10516Y38567D01*
X-10404Y38541D01*
X-10295Y38506D01*
X-10235Y38501D01*
X-10177Y38487D01*
X-10062Y38487D01*
X-9948Y38478D01*
X-9889Y38487D01*
G37*
G36*
X-9889Y-11513D02*
X-9889Y-11513D01*
X-9829Y-11514D01*
X-9717Y-11488D01*
X-9603Y-11471D01*
X-9547Y-11448D01*
X-9489Y-11435D01*
X-9303Y-11352D01*
X-9279Y-11342D01*
X-9274Y-11338D01*
X-9266Y-11335D01*
X190734Y98665D01*
X190871Y98762D01*
X191007Y98857D01*
X191012Y98863D01*
X191018Y98867D01*
X191129Y98993D01*
X191240Y99116D01*
X191244Y99122D01*
X191249Y99128D01*
X191328Y99275D01*
X191409Y99421D01*
X191411Y99428D01*
X191415Y99435D01*
X191458Y99596D01*
X191504Y99756D01*
X191504Y99765D01*
X191506Y99771D01*
X191507Y99797D01*
X191523Y100000D01*
X191523Y120000D01*
X191516Y120060D01*
X191519Y120120D01*
X191497Y120232D01*
X191483Y120346D01*
X191463Y120402D01*
X191452Y120462D01*
X191405Y120566D01*
X191366Y120674D01*
X191333Y120725D01*
X191309Y120779D01*
X191239Y120871D01*
X191177Y120967D01*
X191134Y121009D01*
X191097Y121056D01*
X191009Y121129D01*
X190926Y121209D01*
X190875Y121240D01*
X190829Y121278D01*
X190726Y121329D01*
X190627Y121388D01*
X190570Y121406D01*
X190516Y121433D01*
X190404Y121459D01*
X190295Y121494D01*
X190235Y121499D01*
X190177Y121513D01*
X190062Y121513D01*
X189948Y121522D01*
X189889Y121513D01*
X189829Y121514D01*
X189717Y121488D01*
X189603Y121471D01*
X189547Y121448D01*
X189489Y121435D01*
X189303Y121352D01*
X189279Y121342D01*
X189274Y121338D01*
X189266Y121335D01*
X-10734Y11335D01*
X-10871Y11238D01*
X-11007Y11143D01*
X-11012Y11137D01*
X-11018Y11133D01*
X-11129Y11007D01*
X-11240Y10884D01*
X-11244Y10878D01*
X-11249Y10872D01*
X-11328Y10725D01*
X-11409Y10579D01*
X-11411Y10572D01*
X-11415Y10565D01*
X-11458Y10404D01*
X-11504Y10244D01*
X-11504Y10235D01*
X-11506Y10229D01*
X-11507Y10203D01*
X-11523Y10000D01*
X-11523Y-10000D01*
X-11516Y-10060D01*
X-11519Y-10120D01*
X-11497Y-10232D01*
X-11483Y-10346D01*
X-11463Y-10403D01*
X-11452Y-10462D01*
X-11405Y-10566D01*
X-11366Y-10674D01*
X-11333Y-10725D01*
X-11309Y-10779D01*
X-11239Y-10871D01*
X-11177Y-10967D01*
X-11134Y-11009D01*
X-11097Y-11056D01*
X-11009Y-11129D01*
X-10926Y-11209D01*
X-10875Y-11240D01*
X-10829Y-11278D01*
X-10726Y-11329D01*
X-10627Y-11388D01*
X-10570Y-11406D01*
X-10516Y-11433D01*
X-10404Y-11459D01*
X-10295Y-11494D01*
X-10235Y-11499D01*
X-10177Y-11513D01*
X-10062Y-11513D01*
X-9948Y-11522D01*
X-9889Y-11513D01*
G37*
G36*
X-9889Y-61513D02*
X-9889Y-61513D01*
X-9829Y-61514D01*
X-9717Y-61488D01*
X-9603Y-61471D01*
X-9547Y-61448D01*
X-9489Y-61435D01*
X-9303Y-61352D01*
X-9279Y-61342D01*
X-9274Y-61338D01*
X-9266Y-61335D01*
X190734Y48665D01*
X190871Y48762D01*
X191007Y48857D01*
X191012Y48863D01*
X191018Y48867D01*
X191129Y48993D01*
X191240Y49116D01*
X191244Y49122D01*
X191249Y49128D01*
X191328Y49275D01*
X191409Y49421D01*
X191411Y49428D01*
X191415Y49435D01*
X191458Y49596D01*
X191504Y49756D01*
X191504Y49765D01*
X191506Y49771D01*
X191507Y49797D01*
X191523Y50000D01*
X191523Y70000D01*
X191516Y70060D01*
X191519Y70120D01*
X191497Y70232D01*
X191483Y70346D01*
X191463Y70402D01*
X191452Y70462D01*
X191405Y70566D01*
X191366Y70674D01*
X191333Y70725D01*
X191309Y70779D01*
X191239Y70871D01*
X191177Y70967D01*
X191134Y71009D01*
X191097Y71056D01*
X191009Y71129D01*
X190926Y71209D01*
X190875Y71240D01*
X190829Y71278D01*
X190726Y71329D01*
X190627Y71388D01*
X190570Y71406D01*
X190516Y71433D01*
X190404Y71459D01*
X190295Y71494D01*
X190235Y71499D01*
X190177Y71513D01*
X190062Y71513D01*
X189948Y71522D01*
X189889Y71513D01*
X189829Y71514D01*
X189717Y71488D01*
X189603Y71471D01*
X189547Y71448D01*
X189489Y71435D01*
X189303Y71352D01*
X189279Y71342D01*
X189274Y71338D01*
X189266Y71335D01*
X-10734Y-38665D01*
X-10871Y-38762D01*
X-11007Y-38857D01*
X-11012Y-38863D01*
X-11018Y-38867D01*
X-11129Y-38993D01*
X-11240Y-39116D01*
X-11244Y-39122D01*
X-11249Y-39128D01*
X-11328Y-39275D01*
X-11409Y-39421D01*
X-11411Y-39428D01*
X-11415Y-39435D01*
X-11458Y-39596D01*
X-11504Y-39756D01*
X-11504Y-39765D01*
X-11506Y-39771D01*
X-11507Y-39797D01*
X-11523Y-40000D01*
X-11523Y-60000D01*
X-11516Y-60060D01*
X-11519Y-60120D01*
X-11497Y-60232D01*
X-11483Y-60346D01*
X-11463Y-60403D01*
X-11452Y-60462D01*
X-11405Y-60566D01*
X-11366Y-60674D01*
X-11333Y-60725D01*
X-11309Y-60779D01*
X-11239Y-60871D01*
X-11177Y-60967D01*
X-11134Y-61009D01*
X-11097Y-61056D01*
X-11009Y-61129D01*
X-10926Y-61209D01*
X-10875Y-61240D01*
X-10829Y-61278D01*
X-10726Y-61329D01*
X-10627Y-61388D01*
X-10570Y-61406D01*
X-10516Y-61433D01*
X-10404Y-61459D01*
X-10295Y-61494D01*
X-10235Y-61499D01*
X-10177Y-61513D01*
X-10062Y-61513D01*
X-9948Y-61522D01*
X-9889Y-61513D01*
G37*
G36*
X-9889Y-111513D02*
X-9889Y-111513D01*
X-9829Y-111514D01*
X-9717Y-111488D01*
X-9603Y-111471D01*
X-9547Y-111448D01*
X-9489Y-111435D01*
X-9303Y-111352D01*
X-9279Y-111342D01*
X-9274Y-111338D01*
X-9266Y-111335D01*
X190734Y-1335D01*
X190871Y-1238D01*
X191007Y-1143D01*
X191012Y-1137D01*
X191018Y-1133D01*
X191129Y-1007D01*
X191240Y-884D01*
X191244Y-878D01*
X191249Y-872D01*
X191328Y-725D01*
X191409Y-579D01*
X191411Y-572D01*
X191415Y-565D01*
X191458Y-404D01*
X191504Y-244D01*
X191504Y-235D01*
X191506Y-229D01*
X191507Y-203D01*
X191523Y0D01*
X191523Y20000D01*
X191516Y20060D01*
X191519Y20120D01*
X191497Y20232D01*
X191483Y20346D01*
X191463Y20402D01*
X191452Y20462D01*
X191405Y20566D01*
X191366Y20674D01*
X191333Y20725D01*
X191309Y20779D01*
X191239Y20871D01*
X191177Y20967D01*
X191134Y21009D01*
X191097Y21056D01*
X191009Y21129D01*
X190926Y21209D01*
X190875Y21240D01*
X190829Y21278D01*
X190726Y21329D01*
X190627Y21388D01*
X190570Y21406D01*
X190516Y21433D01*
X190404Y21459D01*
X190295Y21494D01*
X190235Y21499D01*
X190177Y21513D01*
X190062Y21513D01*
X189948Y21522D01*
X189889Y21513D01*
X189829Y21514D01*
X189717Y21488D01*
X189603Y21471D01*
X189547Y21448D01*
X189489Y21435D01*
X189303Y21352D01*
X189279Y21342D01*
X189274Y21338D01*
X189266Y21335D01*
X-10734Y-88665D01*
X-10871Y-88762D01*
X-11007Y-88857D01*
X-11012Y-88863D01*
X-11018Y-88867D01*
X-11129Y-88993D01*
X-11240Y-89116D01*
X-11244Y-89122D01*
X-11249Y-89128D01*
X-11328Y-89275D01*
X-11409Y-89421D01*
X-11411Y-89428D01*
X-11415Y-89435D01*
X-11458Y-89596D01*
X-11504Y-89756D01*
X-11504Y-89765D01*
X-11506Y-89771D01*
X-11507Y-89797D01*
X-11523Y-90000D01*
X-11523Y-110000D01*
X-11516Y-110060D01*
X-11519Y-110120D01*
X-11497Y-110232D01*
X-11483Y-110346D01*
X-11463Y-110403D01*
X-11452Y-110462D01*
X-11405Y-110566D01*
X-11366Y-110674D01*
X-11333Y-110725D01*
X-11309Y-110779D01*
X-11239Y-110871D01*
X-11177Y-110967D01*
X-11134Y-111009D01*
X-11097Y-111056D01*
X-11009Y-111129D01*
X-10926Y-111209D01*
X-10875Y-111240D01*
X-10829Y-111278D01*
X-10726Y-111329D01*
X-10627Y-111388D01*
X-10570Y-111406D01*
X-10516Y-111433D01*
X-10404Y-111459D01*
X-10295Y-111494D01*
X-10235Y-111499D01*
X-10177Y-111513D01*
X-10062Y-111513D01*
X-9948Y-111522D01*
X-9889Y-111513D01*
G37*
M02*
