G04 EAGLE Gerber RS-274X export*
G75*
%MOMM*%
%FSLAX34Y34*%
%LPD*%
%INTop Copper*%
%IPPOS*%
%AMOC8*
5,1,8,0,0,1.08239X$1,22.5*%
G01*
%ADD10R,1.508000X1.508000*%

G36*
X129258Y630004D02*
X129258Y630004D01*
X129277Y630002D01*
X129379Y630024D01*
X129481Y630041D01*
X129498Y630050D01*
X129518Y630054D01*
X129607Y630107D01*
X129698Y630156D01*
X129712Y630170D01*
X129729Y630180D01*
X129796Y630259D01*
X129868Y630334D01*
X129876Y630352D01*
X129889Y630367D01*
X129928Y630463D01*
X129971Y630557D01*
X129973Y630577D01*
X129981Y630595D01*
X129999Y630762D01*
X129999Y749238D01*
X129996Y749258D01*
X129998Y749277D01*
X129976Y749379D01*
X129960Y749481D01*
X129950Y749498D01*
X129946Y749518D01*
X129893Y749607D01*
X129844Y749698D01*
X129830Y749712D01*
X129820Y749729D01*
X129741Y749796D01*
X129666Y749868D01*
X129648Y749876D01*
X129633Y749889D01*
X129537Y749928D01*
X129443Y749971D01*
X129423Y749973D01*
X129405Y749981D01*
X129238Y749999D01*
X10762Y749999D01*
X10742Y749996D01*
X10723Y749998D01*
X10621Y749976D01*
X10519Y749960D01*
X10502Y749950D01*
X10482Y749946D01*
X10393Y749893D01*
X10302Y749844D01*
X10288Y749830D01*
X10271Y749820D01*
X10204Y749741D01*
X10133Y749666D01*
X10124Y749648D01*
X10111Y749633D01*
X10072Y749537D01*
X10029Y749443D01*
X10027Y749423D01*
X10019Y749405D01*
X10001Y749238D01*
X10001Y630762D01*
X10004Y630742D01*
X10002Y630723D01*
X10024Y630621D01*
X10041Y630519D01*
X10050Y630502D01*
X10054Y630482D01*
X10107Y630393D01*
X10156Y630302D01*
X10170Y630288D01*
X10180Y630271D01*
X10259Y630204D01*
X10334Y630133D01*
X10352Y630124D01*
X10367Y630111D01*
X10463Y630072D01*
X10557Y630029D01*
X10577Y630027D01*
X10595Y630019D01*
X10762Y630001D01*
X129238Y630001D01*
X129258Y630004D01*
G37*
G36*
X129258Y10004D02*
X129258Y10004D01*
X129277Y10002D01*
X129379Y10024D01*
X129481Y10041D01*
X129498Y10050D01*
X129518Y10054D01*
X129607Y10107D01*
X129698Y10156D01*
X129712Y10170D01*
X129729Y10180D01*
X129796Y10259D01*
X129868Y10334D01*
X129876Y10352D01*
X129889Y10367D01*
X129928Y10463D01*
X129971Y10557D01*
X129973Y10577D01*
X129981Y10595D01*
X129999Y10762D01*
X129999Y129238D01*
X129996Y129258D01*
X129998Y129277D01*
X129976Y129379D01*
X129960Y129481D01*
X129950Y129498D01*
X129946Y129518D01*
X129893Y129607D01*
X129844Y129698D01*
X129830Y129712D01*
X129820Y129729D01*
X129741Y129796D01*
X129666Y129868D01*
X129648Y129876D01*
X129633Y129889D01*
X129537Y129928D01*
X129443Y129971D01*
X129423Y129973D01*
X129405Y129981D01*
X129238Y129999D01*
X10762Y129999D01*
X10742Y129996D01*
X10723Y129998D01*
X10621Y129976D01*
X10519Y129960D01*
X10502Y129950D01*
X10482Y129946D01*
X10393Y129893D01*
X10302Y129844D01*
X10288Y129830D01*
X10271Y129820D01*
X10204Y129741D01*
X10133Y129666D01*
X10124Y129648D01*
X10111Y129633D01*
X10072Y129537D01*
X10029Y129443D01*
X10027Y129423D01*
X10019Y129405D01*
X10001Y129238D01*
X10001Y10762D01*
X10004Y10742D01*
X10002Y10723D01*
X10024Y10621D01*
X10041Y10519D01*
X10050Y10502D01*
X10054Y10482D01*
X10107Y10393D01*
X10156Y10302D01*
X10170Y10288D01*
X10180Y10271D01*
X10259Y10204D01*
X10334Y10133D01*
X10352Y10124D01*
X10367Y10111D01*
X10463Y10072D01*
X10557Y10029D01*
X10577Y10027D01*
X10595Y10019D01*
X10762Y10001D01*
X129238Y10001D01*
X129258Y10004D01*
G37*
G36*
X129258Y335004D02*
X129258Y335004D01*
X129277Y335002D01*
X129379Y335024D01*
X129481Y335041D01*
X129498Y335050D01*
X129518Y335054D01*
X129607Y335107D01*
X129698Y335156D01*
X129712Y335170D01*
X129729Y335180D01*
X129796Y335259D01*
X129868Y335334D01*
X129876Y335352D01*
X129889Y335367D01*
X129928Y335463D01*
X129971Y335557D01*
X129973Y335577D01*
X129981Y335595D01*
X129999Y335762D01*
X129999Y474238D01*
X129996Y474258D01*
X129998Y474277D01*
X129976Y474379D01*
X129960Y474481D01*
X129950Y474498D01*
X129946Y474518D01*
X129893Y474607D01*
X129844Y474698D01*
X129830Y474712D01*
X129820Y474729D01*
X129741Y474796D01*
X129666Y474868D01*
X129648Y474876D01*
X129633Y474889D01*
X129537Y474928D01*
X129443Y474971D01*
X129423Y474973D01*
X129405Y474981D01*
X129238Y474999D01*
X120019Y474999D01*
X120005Y474997D01*
X119999Y474997D01*
X119998Y474998D01*
X119997Y474999D01*
X119997Y475000D01*
X119998Y475019D01*
X115760Y559779D01*
X115742Y559863D01*
X115733Y559947D01*
X115717Y559982D01*
X115709Y560019D01*
X115665Y560093D01*
X115629Y560170D01*
X115602Y560198D01*
X115583Y560231D01*
X115518Y560287D01*
X115459Y560348D01*
X115425Y560366D01*
X115396Y560391D01*
X115317Y560423D01*
X115241Y560463D01*
X115204Y560469D01*
X115168Y560483D01*
X115083Y560489D01*
X114999Y560502D01*
X114961Y560496D01*
X114923Y560498D01*
X114840Y560476D01*
X114756Y560462D01*
X114722Y560444D01*
X114685Y560434D01*
X114614Y560387D01*
X114539Y560346D01*
X114512Y560319D01*
X114481Y560297D01*
X114428Y560230D01*
X114370Y560168D01*
X114354Y560133D01*
X114330Y560103D01*
X114302Y560022D01*
X114266Y559945D01*
X114259Y559896D01*
X114250Y559870D01*
X114247Y559825D01*
X114240Y559779D01*
X110002Y475019D01*
X110003Y475005D01*
X110003Y474999D01*
X110002Y474998D01*
X110001Y474997D01*
X110000Y474997D01*
X109981Y474999D01*
X100019Y474999D01*
X100005Y474997D01*
X99999Y474997D01*
X99998Y474998D01*
X99997Y474999D01*
X99997Y475000D01*
X99998Y475019D01*
X95760Y559779D01*
X95742Y559863D01*
X95733Y559947D01*
X95717Y559982D01*
X95709Y560019D01*
X95665Y560093D01*
X95629Y560170D01*
X95602Y560198D01*
X95583Y560231D01*
X95518Y560287D01*
X95459Y560348D01*
X95425Y560366D01*
X95396Y560391D01*
X95317Y560423D01*
X95241Y560463D01*
X95204Y560469D01*
X95168Y560483D01*
X95083Y560489D01*
X94999Y560502D01*
X94961Y560496D01*
X94923Y560498D01*
X94840Y560476D01*
X94756Y560462D01*
X94722Y560444D01*
X94685Y560434D01*
X94614Y560387D01*
X94539Y560346D01*
X94512Y560319D01*
X94481Y560297D01*
X94428Y560230D01*
X94370Y560168D01*
X94354Y560133D01*
X94330Y560103D01*
X94302Y560022D01*
X94266Y559945D01*
X94259Y559896D01*
X94250Y559870D01*
X94247Y559825D01*
X94240Y559779D01*
X90002Y475019D01*
X90003Y475005D01*
X90003Y474999D01*
X90002Y474998D01*
X90001Y474997D01*
X90000Y474997D01*
X89981Y474999D01*
X80019Y474999D01*
X80005Y474997D01*
X79999Y474997D01*
X79998Y474998D01*
X79997Y474999D01*
X79997Y475000D01*
X79998Y475019D01*
X75760Y559779D01*
X75742Y559863D01*
X75733Y559947D01*
X75717Y559982D01*
X75709Y560019D01*
X75665Y560093D01*
X75629Y560170D01*
X75602Y560198D01*
X75583Y560231D01*
X75518Y560287D01*
X75459Y560348D01*
X75425Y560366D01*
X75396Y560391D01*
X75317Y560423D01*
X75241Y560463D01*
X75204Y560469D01*
X75168Y560483D01*
X75083Y560489D01*
X74999Y560502D01*
X74961Y560496D01*
X74923Y560498D01*
X74840Y560476D01*
X74756Y560462D01*
X74722Y560444D01*
X74685Y560434D01*
X74614Y560387D01*
X74539Y560346D01*
X74512Y560319D01*
X74481Y560297D01*
X74428Y560230D01*
X74370Y560168D01*
X74354Y560133D01*
X74330Y560103D01*
X74302Y560022D01*
X74266Y559945D01*
X74259Y559896D01*
X74250Y559870D01*
X74247Y559825D01*
X74240Y559779D01*
X70002Y475019D01*
X70003Y475005D01*
X70003Y474999D01*
X70002Y474998D01*
X70001Y474997D01*
X70000Y474997D01*
X69981Y474999D01*
X60019Y474999D01*
X60005Y474997D01*
X59999Y474997D01*
X59998Y474998D01*
X59997Y474999D01*
X59997Y475000D01*
X59998Y475019D01*
X55760Y559779D01*
X55742Y559863D01*
X55733Y559947D01*
X55717Y559982D01*
X55709Y560019D01*
X55665Y560093D01*
X55629Y560170D01*
X55602Y560198D01*
X55583Y560231D01*
X55518Y560287D01*
X55459Y560348D01*
X55425Y560366D01*
X55396Y560391D01*
X55317Y560423D01*
X55241Y560463D01*
X55204Y560469D01*
X55168Y560483D01*
X55083Y560489D01*
X54999Y560502D01*
X54961Y560496D01*
X54923Y560498D01*
X54840Y560476D01*
X54756Y560462D01*
X54722Y560444D01*
X54685Y560434D01*
X54614Y560387D01*
X54539Y560346D01*
X54512Y560319D01*
X54481Y560297D01*
X54428Y560230D01*
X54370Y560168D01*
X54354Y560133D01*
X54330Y560103D01*
X54302Y560022D01*
X54266Y559945D01*
X54259Y559896D01*
X54250Y559870D01*
X54247Y559825D01*
X54240Y559779D01*
X50002Y475019D01*
X50003Y475005D01*
X50003Y474999D01*
X50002Y474998D01*
X50001Y474997D01*
X50000Y474997D01*
X49981Y474999D01*
X40019Y474999D01*
X40005Y474997D01*
X39999Y474997D01*
X39998Y474998D01*
X39997Y474999D01*
X39997Y475000D01*
X39998Y475019D01*
X35760Y559779D01*
X35742Y559863D01*
X35733Y559947D01*
X35717Y559982D01*
X35709Y560019D01*
X35665Y560093D01*
X35629Y560170D01*
X35602Y560198D01*
X35583Y560231D01*
X35518Y560287D01*
X35459Y560348D01*
X35425Y560366D01*
X35396Y560391D01*
X35317Y560423D01*
X35241Y560463D01*
X35204Y560469D01*
X35168Y560483D01*
X35083Y560489D01*
X34999Y560502D01*
X34961Y560496D01*
X34923Y560498D01*
X34840Y560476D01*
X34756Y560462D01*
X34722Y560444D01*
X34685Y560434D01*
X34614Y560387D01*
X34539Y560346D01*
X34512Y560319D01*
X34481Y560297D01*
X34428Y560230D01*
X34370Y560168D01*
X34354Y560133D01*
X34330Y560103D01*
X34302Y560022D01*
X34266Y559945D01*
X34259Y559896D01*
X34250Y559870D01*
X34247Y559825D01*
X34240Y559779D01*
X30002Y475019D01*
X30003Y475005D01*
X30003Y474999D01*
X30002Y474998D01*
X30001Y474997D01*
X30000Y474997D01*
X29981Y474999D01*
X20019Y474999D01*
X20005Y474997D01*
X19999Y474997D01*
X19998Y474998D01*
X19997Y474999D01*
X19997Y475000D01*
X19998Y475019D01*
X15035Y574276D01*
X15035Y574277D01*
X15010Y574393D01*
X14984Y574516D01*
X14983Y574517D01*
X14983Y574518D01*
X14922Y574620D01*
X14858Y574728D01*
X14857Y574728D01*
X14857Y574729D01*
X14765Y574808D01*
X14671Y574888D01*
X14670Y574889D01*
X14549Y574938D01*
X14443Y574980D01*
X14442Y574981D01*
X14275Y574999D01*
X10762Y574999D01*
X10742Y574996D01*
X10723Y574998D01*
X10621Y574976D01*
X10519Y574960D01*
X10502Y574950D01*
X10482Y574946D01*
X10393Y574893D01*
X10302Y574844D01*
X10288Y574830D01*
X10271Y574820D01*
X10204Y574741D01*
X10133Y574666D01*
X10124Y574648D01*
X10111Y574633D01*
X10072Y574537D01*
X10029Y574443D01*
X10027Y574423D01*
X10019Y574405D01*
X10001Y574238D01*
X10001Y435762D01*
X10004Y435742D01*
X10002Y435723D01*
X10024Y435621D01*
X10041Y435519D01*
X10050Y435502D01*
X10054Y435482D01*
X10107Y435393D01*
X10156Y435302D01*
X10170Y435288D01*
X10180Y435271D01*
X10259Y435204D01*
X10334Y435133D01*
X10352Y435124D01*
X10367Y435111D01*
X10463Y435072D01*
X10557Y435029D01*
X10577Y435027D01*
X10595Y435019D01*
X10762Y435001D01*
X19981Y435001D01*
X19995Y435003D01*
X20001Y435003D01*
X20002Y435002D01*
X20003Y435001D01*
X20003Y435000D01*
X20002Y434981D01*
X24240Y350221D01*
X24258Y350137D01*
X24267Y350053D01*
X24283Y350018D01*
X24292Y349981D01*
X24335Y349907D01*
X24371Y349830D01*
X24398Y349802D01*
X24417Y349769D01*
X24482Y349714D01*
X24541Y349652D01*
X24575Y349634D01*
X24604Y349609D01*
X24683Y349577D01*
X24759Y349537D01*
X24796Y349531D01*
X24832Y349517D01*
X24917Y349512D01*
X25001Y349498D01*
X25039Y349504D01*
X25077Y349502D01*
X25160Y349524D01*
X25244Y349538D01*
X25278Y349556D01*
X25315Y349566D01*
X25386Y349613D01*
X25461Y349654D01*
X25488Y349681D01*
X25519Y349703D01*
X25572Y349770D01*
X25630Y349832D01*
X25646Y349867D01*
X25670Y349897D01*
X25698Y349978D01*
X25734Y350056D01*
X25741Y350105D01*
X25750Y350130D01*
X25753Y350175D01*
X25760Y350221D01*
X29998Y434981D01*
X29997Y434995D01*
X29997Y435001D01*
X29998Y435002D01*
X29999Y435003D01*
X30000Y435003D01*
X30019Y435001D01*
X39981Y435001D01*
X39995Y435003D01*
X40001Y435003D01*
X40002Y435002D01*
X40003Y435001D01*
X40003Y435000D01*
X40002Y434981D01*
X44240Y350221D01*
X44258Y350137D01*
X44267Y350053D01*
X44283Y350018D01*
X44292Y349981D01*
X44335Y349907D01*
X44371Y349830D01*
X44398Y349802D01*
X44417Y349769D01*
X44482Y349714D01*
X44541Y349652D01*
X44575Y349634D01*
X44604Y349609D01*
X44683Y349577D01*
X44759Y349537D01*
X44796Y349531D01*
X44832Y349517D01*
X44917Y349512D01*
X45001Y349498D01*
X45039Y349504D01*
X45077Y349502D01*
X45160Y349524D01*
X45244Y349538D01*
X45278Y349556D01*
X45315Y349566D01*
X45386Y349613D01*
X45461Y349654D01*
X45488Y349681D01*
X45519Y349703D01*
X45572Y349770D01*
X45630Y349832D01*
X45646Y349867D01*
X45670Y349897D01*
X45698Y349978D01*
X45734Y350056D01*
X45741Y350105D01*
X45750Y350130D01*
X45753Y350175D01*
X45760Y350221D01*
X49998Y434981D01*
X49997Y434995D01*
X49997Y435001D01*
X49998Y435002D01*
X49999Y435003D01*
X50000Y435003D01*
X50019Y435001D01*
X59981Y435001D01*
X59995Y435003D01*
X60001Y435003D01*
X60002Y435002D01*
X60003Y435001D01*
X60003Y435000D01*
X60002Y434981D01*
X64240Y350221D01*
X64258Y350137D01*
X64267Y350053D01*
X64283Y350018D01*
X64292Y349981D01*
X64335Y349907D01*
X64371Y349830D01*
X64398Y349802D01*
X64417Y349769D01*
X64482Y349714D01*
X64541Y349652D01*
X64575Y349634D01*
X64604Y349609D01*
X64683Y349577D01*
X64759Y349537D01*
X64796Y349531D01*
X64832Y349517D01*
X64917Y349512D01*
X65001Y349498D01*
X65039Y349504D01*
X65077Y349502D01*
X65160Y349524D01*
X65244Y349538D01*
X65278Y349556D01*
X65315Y349566D01*
X65386Y349613D01*
X65461Y349654D01*
X65488Y349681D01*
X65519Y349703D01*
X65572Y349770D01*
X65630Y349832D01*
X65646Y349867D01*
X65670Y349897D01*
X65698Y349978D01*
X65734Y350056D01*
X65741Y350105D01*
X65750Y350130D01*
X65753Y350175D01*
X65760Y350221D01*
X69998Y434981D01*
X69997Y434995D01*
X69997Y435001D01*
X69998Y435002D01*
X69999Y435003D01*
X70000Y435003D01*
X70019Y435001D01*
X79981Y435001D01*
X79995Y435003D01*
X80001Y435003D01*
X80002Y435002D01*
X80003Y435001D01*
X80003Y435000D01*
X80002Y434981D01*
X84240Y350221D01*
X84258Y350137D01*
X84267Y350053D01*
X84283Y350018D01*
X84292Y349981D01*
X84335Y349907D01*
X84371Y349830D01*
X84398Y349802D01*
X84417Y349769D01*
X84482Y349714D01*
X84541Y349652D01*
X84575Y349634D01*
X84604Y349609D01*
X84683Y349577D01*
X84759Y349537D01*
X84796Y349531D01*
X84832Y349517D01*
X84917Y349512D01*
X85001Y349498D01*
X85039Y349504D01*
X85077Y349502D01*
X85160Y349524D01*
X85244Y349538D01*
X85278Y349556D01*
X85315Y349566D01*
X85386Y349613D01*
X85461Y349654D01*
X85488Y349681D01*
X85519Y349703D01*
X85572Y349770D01*
X85630Y349832D01*
X85646Y349867D01*
X85670Y349897D01*
X85698Y349978D01*
X85734Y350056D01*
X85741Y350105D01*
X85750Y350130D01*
X85753Y350175D01*
X85760Y350221D01*
X89998Y434981D01*
X89997Y434995D01*
X89997Y435001D01*
X89998Y435002D01*
X89999Y435003D01*
X90000Y435003D01*
X90019Y435001D01*
X99981Y435001D01*
X99995Y435003D01*
X100001Y435003D01*
X100002Y435002D01*
X100003Y435001D01*
X100003Y435000D01*
X100002Y434981D01*
X104240Y350221D01*
X104258Y350137D01*
X104267Y350053D01*
X104283Y350018D01*
X104292Y349981D01*
X104335Y349907D01*
X104371Y349830D01*
X104398Y349802D01*
X104417Y349769D01*
X104482Y349714D01*
X104541Y349652D01*
X104575Y349634D01*
X104604Y349609D01*
X104683Y349577D01*
X104759Y349537D01*
X104796Y349531D01*
X104832Y349517D01*
X104917Y349512D01*
X105001Y349498D01*
X105039Y349504D01*
X105077Y349502D01*
X105160Y349524D01*
X105244Y349538D01*
X105278Y349556D01*
X105315Y349566D01*
X105386Y349613D01*
X105461Y349654D01*
X105488Y349681D01*
X105519Y349703D01*
X105572Y349770D01*
X105630Y349832D01*
X105646Y349867D01*
X105670Y349897D01*
X105698Y349978D01*
X105734Y350056D01*
X105741Y350105D01*
X105750Y350130D01*
X105753Y350175D01*
X105760Y350221D01*
X109998Y434981D01*
X109997Y434995D01*
X109997Y435001D01*
X109998Y435002D01*
X109999Y435003D01*
X110000Y435003D01*
X110019Y435001D01*
X119981Y435001D01*
X119995Y435003D01*
X120001Y435003D01*
X120002Y435002D01*
X120003Y435001D01*
X120003Y435000D01*
X120002Y434981D01*
X124965Y335724D01*
X124965Y335723D01*
X124990Y335607D01*
X125016Y335484D01*
X125017Y335483D01*
X125017Y335482D01*
X125078Y335380D01*
X125142Y335272D01*
X125143Y335272D01*
X125143Y335271D01*
X125235Y335192D01*
X125329Y335112D01*
X125330Y335111D01*
X125451Y335062D01*
X125557Y335020D01*
X125558Y335019D01*
X125725Y335001D01*
X129238Y335001D01*
X129258Y335004D01*
G37*
G36*
X129258Y185004D02*
X129258Y185004D01*
X129277Y185002D01*
X129379Y185024D01*
X129481Y185041D01*
X129498Y185050D01*
X129518Y185054D01*
X129607Y185107D01*
X129698Y185156D01*
X129712Y185170D01*
X129729Y185180D01*
X129796Y185259D01*
X129868Y185334D01*
X129876Y185352D01*
X129889Y185367D01*
X129928Y185463D01*
X129971Y185557D01*
X129973Y185577D01*
X129981Y185595D01*
X129999Y185762D01*
X129999Y324238D01*
X129996Y324258D01*
X129998Y324277D01*
X129976Y324379D01*
X129960Y324481D01*
X129950Y324498D01*
X129946Y324518D01*
X129893Y324607D01*
X129844Y324698D01*
X129830Y324712D01*
X129820Y324729D01*
X129741Y324796D01*
X129666Y324868D01*
X129648Y324876D01*
X129633Y324889D01*
X129537Y324928D01*
X129443Y324971D01*
X129423Y324973D01*
X129405Y324981D01*
X129238Y324999D01*
X120019Y324999D01*
X120005Y324997D01*
X119999Y324997D01*
X119998Y324998D01*
X119997Y324999D01*
X119997Y325000D01*
X119998Y325019D01*
X115760Y409779D01*
X115742Y409863D01*
X115733Y409947D01*
X115717Y409982D01*
X115709Y410019D01*
X115665Y410093D01*
X115629Y410170D01*
X115602Y410198D01*
X115583Y410231D01*
X115518Y410287D01*
X115459Y410348D01*
X115425Y410366D01*
X115396Y410391D01*
X115317Y410423D01*
X115241Y410463D01*
X115204Y410469D01*
X115168Y410483D01*
X115083Y410489D01*
X114999Y410502D01*
X114961Y410496D01*
X114923Y410498D01*
X114840Y410476D01*
X114756Y410462D01*
X114722Y410444D01*
X114685Y410434D01*
X114614Y410387D01*
X114539Y410346D01*
X114512Y410319D01*
X114481Y410297D01*
X114428Y410230D01*
X114370Y410168D01*
X114354Y410133D01*
X114330Y410103D01*
X114302Y410022D01*
X114266Y409945D01*
X114259Y409896D01*
X114250Y409870D01*
X114247Y409825D01*
X114240Y409779D01*
X110002Y325019D01*
X110003Y325005D01*
X110003Y324999D01*
X110002Y324998D01*
X110001Y324997D01*
X110000Y324997D01*
X109981Y324999D01*
X100019Y324999D01*
X100005Y324997D01*
X99999Y324997D01*
X99998Y324998D01*
X99997Y324999D01*
X99997Y325000D01*
X99998Y325019D01*
X95760Y409779D01*
X95742Y409863D01*
X95733Y409947D01*
X95717Y409982D01*
X95709Y410019D01*
X95665Y410093D01*
X95629Y410170D01*
X95602Y410198D01*
X95583Y410231D01*
X95518Y410287D01*
X95459Y410348D01*
X95425Y410366D01*
X95396Y410391D01*
X95317Y410423D01*
X95241Y410463D01*
X95204Y410469D01*
X95168Y410483D01*
X95083Y410489D01*
X94999Y410502D01*
X94961Y410496D01*
X94923Y410498D01*
X94840Y410476D01*
X94756Y410462D01*
X94722Y410444D01*
X94685Y410434D01*
X94614Y410387D01*
X94539Y410346D01*
X94512Y410319D01*
X94481Y410297D01*
X94428Y410230D01*
X94370Y410168D01*
X94354Y410133D01*
X94330Y410103D01*
X94302Y410022D01*
X94266Y409945D01*
X94259Y409896D01*
X94250Y409870D01*
X94247Y409825D01*
X94240Y409779D01*
X90002Y325019D01*
X90003Y325005D01*
X90003Y324999D01*
X90002Y324998D01*
X90001Y324997D01*
X90000Y324997D01*
X89981Y324999D01*
X80019Y324999D01*
X80005Y324997D01*
X79999Y324997D01*
X79998Y324998D01*
X79997Y324999D01*
X79997Y325000D01*
X79998Y325019D01*
X75760Y409779D01*
X75742Y409863D01*
X75733Y409947D01*
X75717Y409982D01*
X75709Y410019D01*
X75665Y410093D01*
X75629Y410170D01*
X75602Y410198D01*
X75583Y410231D01*
X75518Y410287D01*
X75459Y410348D01*
X75425Y410366D01*
X75396Y410391D01*
X75317Y410423D01*
X75241Y410463D01*
X75204Y410469D01*
X75168Y410483D01*
X75083Y410489D01*
X74999Y410502D01*
X74961Y410496D01*
X74923Y410498D01*
X74840Y410476D01*
X74756Y410462D01*
X74722Y410444D01*
X74685Y410434D01*
X74614Y410387D01*
X74539Y410346D01*
X74512Y410319D01*
X74481Y410297D01*
X74428Y410230D01*
X74370Y410168D01*
X74354Y410133D01*
X74330Y410103D01*
X74302Y410022D01*
X74266Y409945D01*
X74259Y409896D01*
X74250Y409870D01*
X74247Y409825D01*
X74240Y409779D01*
X70002Y325019D01*
X70003Y325005D01*
X70003Y324999D01*
X70002Y324998D01*
X70001Y324997D01*
X70000Y324997D01*
X69981Y324999D01*
X60019Y324999D01*
X60005Y324997D01*
X59999Y324997D01*
X59998Y324998D01*
X59997Y324999D01*
X59997Y325000D01*
X59998Y325019D01*
X55760Y409779D01*
X55742Y409863D01*
X55733Y409947D01*
X55717Y409982D01*
X55709Y410019D01*
X55665Y410093D01*
X55629Y410170D01*
X55602Y410198D01*
X55583Y410231D01*
X55518Y410287D01*
X55459Y410348D01*
X55425Y410366D01*
X55396Y410391D01*
X55317Y410423D01*
X55241Y410463D01*
X55204Y410469D01*
X55168Y410483D01*
X55083Y410489D01*
X54999Y410502D01*
X54961Y410496D01*
X54923Y410498D01*
X54840Y410476D01*
X54756Y410462D01*
X54722Y410444D01*
X54685Y410434D01*
X54614Y410387D01*
X54539Y410346D01*
X54512Y410319D01*
X54481Y410297D01*
X54428Y410230D01*
X54370Y410168D01*
X54354Y410133D01*
X54330Y410103D01*
X54302Y410022D01*
X54266Y409945D01*
X54259Y409896D01*
X54250Y409870D01*
X54247Y409825D01*
X54240Y409779D01*
X50002Y325019D01*
X50003Y325005D01*
X50003Y324999D01*
X50002Y324998D01*
X50001Y324997D01*
X50000Y324997D01*
X49981Y324999D01*
X40019Y324999D01*
X40005Y324997D01*
X39999Y324997D01*
X39998Y324998D01*
X39997Y324999D01*
X39997Y325000D01*
X39998Y325019D01*
X35760Y409779D01*
X35742Y409863D01*
X35733Y409947D01*
X35717Y409982D01*
X35709Y410019D01*
X35665Y410093D01*
X35629Y410170D01*
X35602Y410198D01*
X35583Y410231D01*
X35518Y410287D01*
X35459Y410348D01*
X35425Y410366D01*
X35396Y410391D01*
X35317Y410423D01*
X35241Y410463D01*
X35204Y410469D01*
X35168Y410483D01*
X35083Y410489D01*
X34999Y410502D01*
X34961Y410496D01*
X34923Y410498D01*
X34840Y410476D01*
X34756Y410462D01*
X34722Y410444D01*
X34685Y410434D01*
X34614Y410387D01*
X34539Y410346D01*
X34512Y410319D01*
X34481Y410297D01*
X34428Y410230D01*
X34370Y410168D01*
X34354Y410133D01*
X34330Y410103D01*
X34302Y410022D01*
X34266Y409945D01*
X34259Y409896D01*
X34250Y409870D01*
X34247Y409825D01*
X34240Y409779D01*
X30002Y325019D01*
X30003Y325005D01*
X30003Y324999D01*
X30002Y324998D01*
X30001Y324997D01*
X30000Y324997D01*
X29981Y324999D01*
X20019Y324999D01*
X20005Y324997D01*
X19999Y324997D01*
X19998Y324998D01*
X19997Y324999D01*
X19997Y325000D01*
X19998Y325019D01*
X15035Y424276D01*
X15035Y424277D01*
X15010Y424393D01*
X14984Y424516D01*
X14983Y424517D01*
X14983Y424518D01*
X14922Y424620D01*
X14858Y424728D01*
X14857Y424728D01*
X14857Y424729D01*
X14765Y424808D01*
X14671Y424888D01*
X14670Y424889D01*
X14549Y424938D01*
X14443Y424980D01*
X14442Y424981D01*
X14275Y424999D01*
X10762Y424999D01*
X10742Y424996D01*
X10723Y424998D01*
X10621Y424976D01*
X10519Y424960D01*
X10502Y424950D01*
X10482Y424946D01*
X10393Y424893D01*
X10302Y424844D01*
X10288Y424830D01*
X10271Y424820D01*
X10204Y424741D01*
X10133Y424666D01*
X10124Y424648D01*
X10111Y424633D01*
X10072Y424537D01*
X10029Y424443D01*
X10027Y424423D01*
X10019Y424405D01*
X10001Y424238D01*
X10001Y285762D01*
X10004Y285742D01*
X10002Y285723D01*
X10024Y285621D01*
X10041Y285519D01*
X10050Y285502D01*
X10054Y285482D01*
X10107Y285393D01*
X10156Y285302D01*
X10170Y285288D01*
X10180Y285271D01*
X10259Y285204D01*
X10334Y285133D01*
X10352Y285124D01*
X10367Y285111D01*
X10463Y285072D01*
X10557Y285029D01*
X10577Y285027D01*
X10595Y285019D01*
X10762Y285001D01*
X19981Y285001D01*
X19995Y285003D01*
X20001Y285003D01*
X20002Y285002D01*
X20003Y285001D01*
X20003Y285000D01*
X20002Y284981D01*
X24240Y200221D01*
X24258Y200137D01*
X24267Y200053D01*
X24283Y200018D01*
X24292Y199981D01*
X24335Y199907D01*
X24371Y199830D01*
X24398Y199802D01*
X24417Y199769D01*
X24482Y199714D01*
X24541Y199652D01*
X24575Y199634D01*
X24604Y199609D01*
X24683Y199577D01*
X24759Y199537D01*
X24796Y199531D01*
X24832Y199517D01*
X24917Y199512D01*
X25001Y199498D01*
X25039Y199504D01*
X25077Y199502D01*
X25160Y199524D01*
X25244Y199538D01*
X25278Y199556D01*
X25315Y199566D01*
X25386Y199613D01*
X25461Y199654D01*
X25488Y199681D01*
X25519Y199703D01*
X25572Y199770D01*
X25630Y199832D01*
X25646Y199867D01*
X25670Y199897D01*
X25698Y199978D01*
X25734Y200056D01*
X25741Y200105D01*
X25750Y200130D01*
X25753Y200175D01*
X25760Y200221D01*
X29998Y284981D01*
X29997Y284995D01*
X29997Y285001D01*
X29998Y285002D01*
X29999Y285003D01*
X30000Y285003D01*
X30019Y285001D01*
X39981Y285001D01*
X39995Y285003D01*
X40001Y285003D01*
X40002Y285002D01*
X40003Y285001D01*
X40003Y285000D01*
X40002Y284981D01*
X44240Y200221D01*
X44258Y200137D01*
X44267Y200053D01*
X44283Y200018D01*
X44292Y199981D01*
X44335Y199907D01*
X44371Y199830D01*
X44398Y199802D01*
X44417Y199769D01*
X44482Y199714D01*
X44541Y199652D01*
X44575Y199634D01*
X44604Y199609D01*
X44683Y199577D01*
X44759Y199537D01*
X44796Y199531D01*
X44832Y199517D01*
X44917Y199512D01*
X45001Y199498D01*
X45039Y199504D01*
X45077Y199502D01*
X45160Y199524D01*
X45244Y199538D01*
X45278Y199556D01*
X45315Y199566D01*
X45386Y199613D01*
X45461Y199654D01*
X45488Y199681D01*
X45519Y199703D01*
X45572Y199770D01*
X45630Y199832D01*
X45646Y199867D01*
X45670Y199897D01*
X45698Y199978D01*
X45734Y200056D01*
X45741Y200105D01*
X45750Y200130D01*
X45753Y200175D01*
X45760Y200221D01*
X49998Y284981D01*
X49997Y284995D01*
X49997Y285001D01*
X49998Y285002D01*
X49999Y285003D01*
X50000Y285003D01*
X50019Y285001D01*
X59981Y285001D01*
X59995Y285003D01*
X60001Y285003D01*
X60002Y285002D01*
X60003Y285001D01*
X60003Y285000D01*
X60002Y284981D01*
X64240Y200221D01*
X64258Y200137D01*
X64267Y200053D01*
X64283Y200018D01*
X64292Y199981D01*
X64335Y199907D01*
X64371Y199830D01*
X64398Y199802D01*
X64417Y199769D01*
X64482Y199714D01*
X64541Y199652D01*
X64575Y199634D01*
X64604Y199609D01*
X64683Y199577D01*
X64759Y199537D01*
X64796Y199531D01*
X64832Y199517D01*
X64917Y199512D01*
X65001Y199498D01*
X65039Y199504D01*
X65077Y199502D01*
X65160Y199524D01*
X65244Y199538D01*
X65278Y199556D01*
X65315Y199566D01*
X65386Y199613D01*
X65461Y199654D01*
X65488Y199681D01*
X65519Y199703D01*
X65572Y199770D01*
X65630Y199832D01*
X65646Y199867D01*
X65670Y199897D01*
X65698Y199978D01*
X65734Y200056D01*
X65741Y200105D01*
X65750Y200130D01*
X65753Y200175D01*
X65760Y200221D01*
X69998Y284981D01*
X69997Y284995D01*
X69997Y285001D01*
X69998Y285002D01*
X69999Y285003D01*
X70000Y285003D01*
X70019Y285001D01*
X79981Y285001D01*
X79995Y285003D01*
X80001Y285003D01*
X80002Y285002D01*
X80003Y285001D01*
X80003Y285000D01*
X80002Y284981D01*
X84240Y200221D01*
X84258Y200137D01*
X84267Y200053D01*
X84283Y200018D01*
X84292Y199981D01*
X84335Y199907D01*
X84371Y199830D01*
X84398Y199802D01*
X84417Y199769D01*
X84482Y199714D01*
X84541Y199652D01*
X84575Y199634D01*
X84604Y199609D01*
X84683Y199577D01*
X84759Y199537D01*
X84796Y199531D01*
X84832Y199517D01*
X84917Y199512D01*
X85001Y199498D01*
X85039Y199504D01*
X85077Y199502D01*
X85160Y199524D01*
X85244Y199538D01*
X85278Y199556D01*
X85315Y199566D01*
X85386Y199613D01*
X85461Y199654D01*
X85488Y199681D01*
X85519Y199703D01*
X85572Y199770D01*
X85630Y199832D01*
X85646Y199867D01*
X85670Y199897D01*
X85698Y199978D01*
X85734Y200056D01*
X85741Y200105D01*
X85750Y200130D01*
X85753Y200175D01*
X85760Y200221D01*
X89998Y284981D01*
X89997Y284995D01*
X89997Y285001D01*
X89998Y285002D01*
X89999Y285003D01*
X90000Y285003D01*
X90019Y285001D01*
X99981Y285001D01*
X99995Y285003D01*
X100001Y285003D01*
X100002Y285002D01*
X100003Y285001D01*
X100003Y285000D01*
X100002Y284981D01*
X104240Y200221D01*
X104258Y200137D01*
X104267Y200053D01*
X104283Y200018D01*
X104292Y199981D01*
X104335Y199907D01*
X104371Y199830D01*
X104398Y199802D01*
X104417Y199769D01*
X104482Y199714D01*
X104541Y199652D01*
X104575Y199634D01*
X104604Y199609D01*
X104683Y199577D01*
X104759Y199537D01*
X104796Y199531D01*
X104832Y199517D01*
X104917Y199512D01*
X105001Y199498D01*
X105039Y199504D01*
X105077Y199502D01*
X105160Y199524D01*
X105244Y199538D01*
X105278Y199556D01*
X105315Y199566D01*
X105386Y199613D01*
X105461Y199654D01*
X105488Y199681D01*
X105519Y199703D01*
X105572Y199770D01*
X105630Y199832D01*
X105646Y199867D01*
X105670Y199897D01*
X105698Y199978D01*
X105734Y200056D01*
X105741Y200105D01*
X105750Y200130D01*
X105753Y200175D01*
X105760Y200221D01*
X109998Y284981D01*
X109997Y284995D01*
X109997Y285001D01*
X109998Y285002D01*
X109999Y285003D01*
X110000Y285003D01*
X110019Y285001D01*
X119981Y285001D01*
X119995Y285003D01*
X120001Y285003D01*
X120002Y285002D01*
X120003Y285001D01*
X120003Y285000D01*
X120002Y284981D01*
X124965Y185724D01*
X124965Y185723D01*
X124990Y185607D01*
X125016Y185484D01*
X125017Y185483D01*
X125017Y185482D01*
X125078Y185380D01*
X125142Y185272D01*
X125143Y185272D01*
X125143Y185271D01*
X125235Y185192D01*
X125329Y185112D01*
X125330Y185111D01*
X125451Y185062D01*
X125557Y185020D01*
X125558Y185019D01*
X125725Y185001D01*
X129238Y185001D01*
X129258Y185004D01*
G37*
G36*
X129258Y485004D02*
X129258Y485004D01*
X129277Y485002D01*
X129379Y485024D01*
X129481Y485041D01*
X129498Y485050D01*
X129518Y485054D01*
X129607Y485107D01*
X129698Y485156D01*
X129712Y485170D01*
X129729Y485180D01*
X129796Y485259D01*
X129868Y485334D01*
X129876Y485352D01*
X129889Y485367D01*
X129928Y485463D01*
X129971Y485557D01*
X129973Y485577D01*
X129981Y485595D01*
X129999Y485762D01*
X129999Y604238D01*
X129996Y604258D01*
X129998Y604277D01*
X129976Y604379D01*
X129960Y604481D01*
X129950Y604498D01*
X129946Y604518D01*
X129893Y604607D01*
X129844Y604698D01*
X129830Y604712D01*
X129820Y604729D01*
X129741Y604796D01*
X129666Y604868D01*
X129648Y604876D01*
X129633Y604889D01*
X129537Y604928D01*
X129443Y604971D01*
X129423Y604973D01*
X129405Y604981D01*
X129238Y604999D01*
X10762Y604999D01*
X10742Y604996D01*
X10723Y604998D01*
X10621Y604976D01*
X10519Y604960D01*
X10502Y604950D01*
X10482Y604946D01*
X10393Y604893D01*
X10302Y604844D01*
X10288Y604830D01*
X10271Y604820D01*
X10204Y604741D01*
X10133Y604666D01*
X10124Y604648D01*
X10111Y604633D01*
X10072Y604537D01*
X10029Y604443D01*
X10027Y604423D01*
X10019Y604405D01*
X10001Y604238D01*
X10001Y585762D01*
X10004Y585742D01*
X10002Y585723D01*
X10024Y585621D01*
X10041Y585519D01*
X10050Y585502D01*
X10054Y585482D01*
X10107Y585393D01*
X10156Y585302D01*
X10170Y585288D01*
X10180Y585271D01*
X10259Y585204D01*
X10334Y585133D01*
X10352Y585124D01*
X10367Y585111D01*
X10463Y585072D01*
X10557Y585029D01*
X10577Y585027D01*
X10595Y585019D01*
X10762Y585001D01*
X19981Y585001D01*
X19995Y585003D01*
X20001Y585003D01*
X20002Y585002D01*
X20003Y585001D01*
X20003Y585000D01*
X20002Y584981D01*
X24240Y500221D01*
X24258Y500137D01*
X24267Y500053D01*
X24283Y500018D01*
X24292Y499981D01*
X24335Y499907D01*
X24371Y499830D01*
X24398Y499802D01*
X24417Y499769D01*
X24482Y499714D01*
X24541Y499652D01*
X24575Y499634D01*
X24604Y499609D01*
X24683Y499577D01*
X24759Y499537D01*
X24796Y499531D01*
X24832Y499517D01*
X24917Y499512D01*
X25001Y499498D01*
X25039Y499504D01*
X25077Y499502D01*
X25160Y499524D01*
X25244Y499538D01*
X25278Y499556D01*
X25315Y499566D01*
X25386Y499613D01*
X25461Y499654D01*
X25488Y499681D01*
X25519Y499703D01*
X25572Y499770D01*
X25630Y499832D01*
X25646Y499867D01*
X25670Y499897D01*
X25698Y499978D01*
X25734Y500056D01*
X25741Y500105D01*
X25750Y500130D01*
X25753Y500175D01*
X25760Y500221D01*
X29998Y584981D01*
X29997Y584995D01*
X29997Y585001D01*
X29998Y585002D01*
X29999Y585003D01*
X30000Y585003D01*
X30019Y585001D01*
X39981Y585001D01*
X39995Y585003D01*
X40001Y585003D01*
X40002Y585002D01*
X40003Y585001D01*
X40003Y585000D01*
X40002Y584981D01*
X44240Y500221D01*
X44258Y500137D01*
X44267Y500053D01*
X44283Y500018D01*
X44292Y499981D01*
X44335Y499907D01*
X44371Y499830D01*
X44398Y499802D01*
X44417Y499769D01*
X44482Y499714D01*
X44541Y499652D01*
X44575Y499634D01*
X44604Y499609D01*
X44683Y499577D01*
X44759Y499537D01*
X44796Y499531D01*
X44832Y499517D01*
X44917Y499512D01*
X45001Y499498D01*
X45039Y499504D01*
X45077Y499502D01*
X45160Y499524D01*
X45244Y499538D01*
X45278Y499556D01*
X45315Y499566D01*
X45386Y499613D01*
X45461Y499654D01*
X45488Y499681D01*
X45519Y499703D01*
X45572Y499770D01*
X45630Y499832D01*
X45646Y499867D01*
X45670Y499897D01*
X45698Y499978D01*
X45734Y500056D01*
X45741Y500105D01*
X45750Y500130D01*
X45753Y500175D01*
X45760Y500221D01*
X49998Y584981D01*
X49997Y584995D01*
X49997Y585001D01*
X49998Y585002D01*
X49999Y585003D01*
X50000Y585003D01*
X50019Y585001D01*
X59981Y585001D01*
X59995Y585003D01*
X60001Y585003D01*
X60002Y585002D01*
X60003Y585001D01*
X60003Y585000D01*
X60002Y584981D01*
X64240Y500221D01*
X64258Y500137D01*
X64267Y500053D01*
X64283Y500018D01*
X64292Y499981D01*
X64335Y499907D01*
X64371Y499830D01*
X64398Y499802D01*
X64417Y499769D01*
X64482Y499714D01*
X64541Y499652D01*
X64575Y499634D01*
X64604Y499609D01*
X64683Y499577D01*
X64759Y499537D01*
X64796Y499531D01*
X64832Y499517D01*
X64917Y499512D01*
X65001Y499498D01*
X65039Y499504D01*
X65077Y499502D01*
X65160Y499524D01*
X65244Y499538D01*
X65278Y499556D01*
X65315Y499566D01*
X65386Y499613D01*
X65461Y499654D01*
X65488Y499681D01*
X65519Y499703D01*
X65572Y499770D01*
X65630Y499832D01*
X65646Y499867D01*
X65670Y499897D01*
X65698Y499978D01*
X65734Y500056D01*
X65741Y500105D01*
X65750Y500130D01*
X65753Y500175D01*
X65760Y500221D01*
X69998Y584981D01*
X69997Y584995D01*
X69997Y585001D01*
X69998Y585002D01*
X69999Y585003D01*
X70000Y585003D01*
X70019Y585001D01*
X79981Y585001D01*
X79995Y585003D01*
X80001Y585003D01*
X80002Y585002D01*
X80003Y585001D01*
X80003Y585000D01*
X80002Y584981D01*
X84240Y500221D01*
X84258Y500137D01*
X84267Y500053D01*
X84283Y500018D01*
X84292Y499981D01*
X84335Y499907D01*
X84371Y499830D01*
X84398Y499802D01*
X84417Y499769D01*
X84482Y499714D01*
X84541Y499652D01*
X84575Y499634D01*
X84604Y499609D01*
X84683Y499577D01*
X84759Y499537D01*
X84796Y499531D01*
X84832Y499517D01*
X84917Y499512D01*
X85001Y499498D01*
X85039Y499504D01*
X85077Y499502D01*
X85160Y499524D01*
X85244Y499538D01*
X85278Y499556D01*
X85315Y499566D01*
X85386Y499613D01*
X85461Y499654D01*
X85488Y499681D01*
X85519Y499703D01*
X85572Y499770D01*
X85630Y499832D01*
X85646Y499867D01*
X85670Y499897D01*
X85698Y499978D01*
X85734Y500056D01*
X85741Y500105D01*
X85750Y500130D01*
X85753Y500175D01*
X85760Y500221D01*
X89998Y584981D01*
X89997Y584995D01*
X89997Y585001D01*
X89998Y585002D01*
X89999Y585003D01*
X90000Y585003D01*
X90019Y585001D01*
X99981Y585001D01*
X99995Y585003D01*
X100001Y585003D01*
X100002Y585002D01*
X100003Y585001D01*
X100003Y585000D01*
X100002Y584981D01*
X104240Y500221D01*
X104258Y500137D01*
X104267Y500053D01*
X104283Y500018D01*
X104292Y499981D01*
X104335Y499907D01*
X104371Y499830D01*
X104398Y499802D01*
X104417Y499769D01*
X104482Y499714D01*
X104541Y499652D01*
X104575Y499634D01*
X104604Y499609D01*
X104683Y499577D01*
X104759Y499537D01*
X104796Y499531D01*
X104832Y499517D01*
X104917Y499512D01*
X105001Y499498D01*
X105039Y499504D01*
X105077Y499502D01*
X105160Y499524D01*
X105244Y499538D01*
X105278Y499556D01*
X105315Y499566D01*
X105386Y499613D01*
X105461Y499654D01*
X105488Y499681D01*
X105519Y499703D01*
X105572Y499770D01*
X105630Y499832D01*
X105646Y499867D01*
X105670Y499897D01*
X105698Y499978D01*
X105734Y500056D01*
X105741Y500105D01*
X105750Y500130D01*
X105753Y500175D01*
X105760Y500221D01*
X109998Y584981D01*
X109997Y584995D01*
X109997Y585001D01*
X109998Y585002D01*
X109999Y585003D01*
X110000Y585003D01*
X110019Y585001D01*
X119981Y585001D01*
X119995Y585003D01*
X120001Y585003D01*
X120002Y585002D01*
X120003Y585001D01*
X120003Y585000D01*
X120002Y584981D01*
X124965Y485724D01*
X124965Y485723D01*
X124990Y485607D01*
X125016Y485484D01*
X125017Y485483D01*
X125017Y485482D01*
X125078Y485380D01*
X125142Y485272D01*
X125143Y485272D01*
X125143Y485271D01*
X125235Y485192D01*
X125329Y485112D01*
X125330Y485111D01*
X125451Y485062D01*
X125557Y485020D01*
X125558Y485019D01*
X125725Y485001D01*
X129238Y485001D01*
X129258Y485004D01*
G37*
G36*
X129258Y155004D02*
X129258Y155004D01*
X129277Y155002D01*
X129379Y155024D01*
X129481Y155041D01*
X129498Y155050D01*
X129518Y155054D01*
X129607Y155107D01*
X129698Y155156D01*
X129712Y155170D01*
X129729Y155180D01*
X129796Y155259D01*
X129868Y155334D01*
X129876Y155352D01*
X129889Y155367D01*
X129928Y155463D01*
X129971Y155557D01*
X129973Y155577D01*
X129981Y155595D01*
X129999Y155762D01*
X129999Y174238D01*
X129996Y174258D01*
X129998Y174277D01*
X129976Y174379D01*
X129960Y174481D01*
X129950Y174498D01*
X129946Y174518D01*
X129893Y174607D01*
X129844Y174698D01*
X129830Y174712D01*
X129820Y174729D01*
X129741Y174796D01*
X129666Y174868D01*
X129648Y174876D01*
X129633Y174889D01*
X129537Y174928D01*
X129443Y174971D01*
X129423Y174973D01*
X129405Y174981D01*
X129238Y174999D01*
X120019Y174999D01*
X120005Y174997D01*
X119999Y174997D01*
X119998Y174998D01*
X119997Y174999D01*
X119997Y175000D01*
X119998Y175019D01*
X115760Y259779D01*
X115742Y259863D01*
X115733Y259947D01*
X115717Y259982D01*
X115709Y260019D01*
X115665Y260093D01*
X115629Y260170D01*
X115602Y260198D01*
X115583Y260231D01*
X115518Y260287D01*
X115459Y260348D01*
X115425Y260366D01*
X115396Y260391D01*
X115317Y260423D01*
X115241Y260463D01*
X115204Y260469D01*
X115168Y260483D01*
X115083Y260489D01*
X114999Y260502D01*
X114961Y260496D01*
X114923Y260498D01*
X114840Y260476D01*
X114756Y260462D01*
X114722Y260444D01*
X114685Y260434D01*
X114614Y260387D01*
X114539Y260346D01*
X114512Y260319D01*
X114481Y260297D01*
X114428Y260230D01*
X114370Y260168D01*
X114354Y260133D01*
X114330Y260103D01*
X114302Y260022D01*
X114266Y259945D01*
X114259Y259896D01*
X114250Y259870D01*
X114247Y259825D01*
X114240Y259779D01*
X110002Y175019D01*
X110003Y175005D01*
X110003Y174999D01*
X110002Y174998D01*
X110001Y174997D01*
X110000Y174997D01*
X109981Y174999D01*
X100019Y174999D01*
X100005Y174997D01*
X99999Y174997D01*
X99998Y174998D01*
X99997Y174999D01*
X99997Y175000D01*
X99998Y175019D01*
X95760Y259779D01*
X95742Y259863D01*
X95733Y259947D01*
X95717Y259982D01*
X95709Y260019D01*
X95665Y260093D01*
X95629Y260170D01*
X95602Y260198D01*
X95583Y260231D01*
X95518Y260287D01*
X95459Y260348D01*
X95425Y260366D01*
X95396Y260391D01*
X95317Y260423D01*
X95241Y260463D01*
X95204Y260469D01*
X95168Y260483D01*
X95083Y260489D01*
X94999Y260502D01*
X94961Y260496D01*
X94923Y260498D01*
X94840Y260476D01*
X94756Y260462D01*
X94722Y260444D01*
X94685Y260434D01*
X94614Y260387D01*
X94539Y260346D01*
X94512Y260319D01*
X94481Y260297D01*
X94428Y260230D01*
X94370Y260168D01*
X94354Y260133D01*
X94330Y260103D01*
X94302Y260022D01*
X94266Y259945D01*
X94259Y259896D01*
X94250Y259870D01*
X94247Y259825D01*
X94240Y259779D01*
X90002Y175019D01*
X90003Y175005D01*
X90003Y174999D01*
X90002Y174998D01*
X90001Y174997D01*
X90000Y174997D01*
X89981Y174999D01*
X80019Y174999D01*
X80005Y174997D01*
X79999Y174997D01*
X79998Y174998D01*
X79997Y174999D01*
X79997Y175000D01*
X79998Y175019D01*
X75760Y259779D01*
X75742Y259863D01*
X75733Y259947D01*
X75717Y259982D01*
X75709Y260019D01*
X75665Y260093D01*
X75629Y260170D01*
X75602Y260198D01*
X75583Y260231D01*
X75518Y260287D01*
X75459Y260348D01*
X75425Y260366D01*
X75396Y260391D01*
X75317Y260423D01*
X75241Y260463D01*
X75204Y260469D01*
X75168Y260483D01*
X75083Y260489D01*
X74999Y260502D01*
X74961Y260496D01*
X74923Y260498D01*
X74840Y260476D01*
X74756Y260462D01*
X74722Y260444D01*
X74685Y260434D01*
X74614Y260387D01*
X74539Y260346D01*
X74512Y260319D01*
X74481Y260297D01*
X74428Y260230D01*
X74370Y260168D01*
X74354Y260133D01*
X74330Y260103D01*
X74302Y260022D01*
X74266Y259945D01*
X74259Y259896D01*
X74250Y259870D01*
X74247Y259825D01*
X74240Y259779D01*
X70002Y175019D01*
X70003Y175005D01*
X70003Y174999D01*
X70002Y174998D01*
X70001Y174997D01*
X70000Y174997D01*
X69981Y174999D01*
X60019Y174999D01*
X60005Y174997D01*
X59999Y174997D01*
X59998Y174998D01*
X59997Y174999D01*
X59997Y175000D01*
X59998Y175019D01*
X55760Y259779D01*
X55742Y259863D01*
X55733Y259947D01*
X55717Y259982D01*
X55709Y260019D01*
X55665Y260093D01*
X55629Y260170D01*
X55602Y260198D01*
X55583Y260231D01*
X55518Y260287D01*
X55459Y260348D01*
X55425Y260366D01*
X55396Y260391D01*
X55317Y260423D01*
X55241Y260463D01*
X55204Y260469D01*
X55168Y260483D01*
X55083Y260489D01*
X54999Y260502D01*
X54961Y260496D01*
X54923Y260498D01*
X54840Y260476D01*
X54756Y260462D01*
X54722Y260444D01*
X54685Y260434D01*
X54614Y260387D01*
X54539Y260346D01*
X54512Y260319D01*
X54481Y260297D01*
X54428Y260230D01*
X54370Y260168D01*
X54354Y260133D01*
X54330Y260103D01*
X54302Y260022D01*
X54266Y259945D01*
X54259Y259896D01*
X54250Y259870D01*
X54247Y259825D01*
X54240Y259779D01*
X50002Y175019D01*
X50003Y175005D01*
X50003Y174999D01*
X50002Y174998D01*
X50001Y174997D01*
X50000Y174997D01*
X49981Y174999D01*
X40019Y174999D01*
X40005Y174997D01*
X39999Y174997D01*
X39998Y174998D01*
X39997Y174999D01*
X39997Y175000D01*
X39998Y175019D01*
X35760Y259779D01*
X35742Y259863D01*
X35733Y259947D01*
X35717Y259982D01*
X35709Y260019D01*
X35665Y260093D01*
X35629Y260170D01*
X35602Y260198D01*
X35583Y260231D01*
X35518Y260287D01*
X35459Y260348D01*
X35425Y260366D01*
X35396Y260391D01*
X35317Y260423D01*
X35241Y260463D01*
X35204Y260469D01*
X35168Y260483D01*
X35083Y260489D01*
X34999Y260502D01*
X34961Y260496D01*
X34923Y260498D01*
X34840Y260476D01*
X34756Y260462D01*
X34722Y260444D01*
X34685Y260434D01*
X34614Y260387D01*
X34539Y260346D01*
X34512Y260319D01*
X34481Y260297D01*
X34428Y260230D01*
X34370Y260168D01*
X34354Y260133D01*
X34330Y260103D01*
X34302Y260022D01*
X34266Y259945D01*
X34259Y259896D01*
X34250Y259870D01*
X34247Y259825D01*
X34240Y259779D01*
X30002Y175019D01*
X30003Y175005D01*
X30003Y174999D01*
X30002Y174998D01*
X30001Y174997D01*
X30000Y174997D01*
X29981Y174999D01*
X20019Y174999D01*
X20005Y174997D01*
X19999Y174997D01*
X19998Y174998D01*
X19997Y174999D01*
X19997Y175000D01*
X19998Y175019D01*
X15035Y274276D01*
X15035Y274277D01*
X15010Y274393D01*
X14984Y274516D01*
X14983Y274517D01*
X14983Y274518D01*
X14922Y274620D01*
X14858Y274728D01*
X14857Y274728D01*
X14857Y274729D01*
X14765Y274808D01*
X14671Y274888D01*
X14670Y274889D01*
X14549Y274938D01*
X14443Y274980D01*
X14442Y274981D01*
X14275Y274999D01*
X10762Y274999D01*
X10742Y274996D01*
X10723Y274998D01*
X10621Y274976D01*
X10519Y274960D01*
X10502Y274950D01*
X10482Y274946D01*
X10393Y274893D01*
X10302Y274844D01*
X10288Y274830D01*
X10271Y274820D01*
X10204Y274741D01*
X10133Y274666D01*
X10124Y274648D01*
X10111Y274633D01*
X10072Y274537D01*
X10029Y274443D01*
X10027Y274423D01*
X10019Y274405D01*
X10001Y274238D01*
X10001Y155762D01*
X10004Y155742D01*
X10002Y155723D01*
X10024Y155621D01*
X10041Y155519D01*
X10050Y155502D01*
X10054Y155482D01*
X10107Y155393D01*
X10156Y155302D01*
X10170Y155288D01*
X10180Y155271D01*
X10259Y155204D01*
X10334Y155133D01*
X10352Y155124D01*
X10367Y155111D01*
X10463Y155072D01*
X10557Y155029D01*
X10577Y155027D01*
X10595Y155019D01*
X10762Y155001D01*
X129238Y155001D01*
X129258Y155004D01*
G37*
D10*
X70000Y595000D03*
X70000Y455000D03*
X70000Y305000D03*
X70000Y165000D03*
X70000Y690000D03*
X30000Y110000D03*
M02*
